<?xml version="1.0" encoding="UTF-8" standalone="no"?><!-- Generator: Gravit.io --><svg xmlns="http://www.w3.org/2000/svg" xmlns:xlink="http://www.w3.org/1999/xlink" style="isolation:isolate" viewBox="0 0 317 27" width="317pt" height="27pt"><defs><clipPath id="_clipPath_zdQUYpdZDMHEbUgmvwLxsa9qtG1bg4lB"><rect width="317" height="27"/></clipPath></defs><g clip-path="url(#_clipPath_zdQUYpdZDMHEbUgmvwLxsa9qtG1bg4lB)"><path d="M 217.932 0 L 300.795 0 C 309.739 0 317 6.049 317 13.5 L 317 13.5 C 317 20.951 309.739 27 300.795 27 L 217.932 27 C 208.989 27 201.727 20.951 201.727 13.5 L 201.727 13.5 C 201.727 6.049 208.989 0 217.932 0 Z" style="stroke:none;fill:#BF2AFF;stroke-miterlimit:10;"/><path d="M 155.973 0 L 238.836 0 C 247.78 0 255.041 6.049 255.041 13.5 L 255.041 13.5 C 255.041 20.951 247.78 27 238.836 27 L 155.973 27 C 147.029 27 139.768 20.951 139.768 13.5 L 139.768 13.5 C 139.768 6.049 147.029 0 155.973 0 Z" style="stroke:none;fill:#2033FF;stroke-miterlimit:10;"/><path d="M 83.928 0 L 166.79 0 C 175.734 0 182.995 6.049 182.995 13.5 L 182.995 13.5 C 182.995 20.951 175.734 27 166.79 27 L 83.928 27 C 74.984 27 67.723 20.951 67.723 13.5 L 67.723 13.5 C 67.723 6.049 74.984 0 83.928 0 Z" style="stroke:none;fill:#18E0FF;stroke-miterlimit:10;"/><path d="M 16.205 0 L 99.068 0 C 108.011 0 115.273 6.049 115.273 13.5 L 115.273 13.5 C 115.273 20.951 108.011 27 99.068 27 L 16.205 27 C 7.261 27 0 20.951 0 13.5 L 0 13.5 C 0 6.049 7.261 0 16.205 0 Z" style="stroke:none;fill:#18FF97;stroke-miterlimit:10;"/></g></svg>