<?xml version="1.0" encoding="UTF-8" standalone="no"?><!-- Generator: Gravit.io --><svg xmlns="http://www.w3.org/2000/svg" xmlns:xlink="http://www.w3.org/1999/xlink" style="isolation:isolate" viewBox="0 0 800 800" width="800pt" height="800pt"><defs><clipPath id="_clipPath_dRW4AlB1cT6a4ssDWRwVvsWo1rIGDo24"><rect width="800" height="800"/></clipPath></defs><g clip-path="url(#_clipPath_dRW4AlB1cT6a4ssDWRwVvsWo1rIGDo24)"><defs><filter id="b3VP3qT3GyXw17kaV7SrKuwqAHHoRWrD" x="-200%" y="-200%" width="400%" height="400%" filterUnits="objectBoundingBox" color-interpolation-filters="sRGB"><feGaussianBlur xmlns="http://www.w3.org/2000/svg" stdDeviation="9.789428663272984"/></filter></defs><g filter="url(#b3VP3qT3GyXw17kaV7SrKuwqAHHoRWrD)" style="mix-blend-mode:normal;" opacity="0.8"><path d="M 303.889 399.936 L 634.338 590.721 C 652.19 601.028 652.713 618.61 635.505 629.96 L 475.138 735.731 C 457.93 747.081 429.465 747.928 411.613 737.621 L 81.164 546.836 C 63.312 536.529 62.789 518.946 79.997 507.597 L 240.364 401.826 C 257.572 390.476 286.037 389.629 303.889 399.936 Z" style="stroke:none;fill:#221948;stroke-miterlimit:10;"/></g><path d="M 649.972 230.221 L 353.902 59.285 C 337.282 49.69 322.82 57.45 321.627 76.603 L 308.25 291.265 C 307.056 310.418 319.58 333.758 336.2 343.354 L 632.27 514.29 C 648.889 523.885 663.351 516.125 664.545 496.972 L 677.921 282.31 C 679.115 263.157 666.591 239.816 649.972 230.221 Z" style="stroke:none;fill:#000000;stroke-miterlimit:10;"/><path d=" M 344.053 56.032 L 329.613 68.913 Q 306.772 75.544 320.841 64.451 Q 334.909 53.357 344.053 56.032" fill="rgb(0,0,0)"/><path d="M 641.631 236.39 L 344.691 64.952 C 327.798 55.198 313.098 63.086 311.884 82.555 L 298.086 303.987 C 296.873 323.456 309.603 347.181 326.496 356.935 L 623.436 528.373 C 640.329 538.126 655.029 530.238 656.243 510.769 L 670.041 289.337 C 671.254 269.868 658.524 246.143 641.631 236.39 Z" style="stroke:none;fill:#262626;stroke-miterlimit:10;"/><linearGradient id="_lgradient_4" x1="1.0840613106226404" y1="0.27434655703158034" x2="-0.10817553078578279" y2="0.7157622041092151" gradientTransform="matrix(-550.876,0,0,321.575,654.59,320.745)" gradientUnits="userSpaceOnUse"><stop offset="2.608695652173913%" stop-opacity="1" style="stop-color:rgb(34,0,168)"/><stop offset="99.99999999999997%" stop-opacity="1" style="stop-color:rgb(13,0,96)"/><stop offset="99.99999999999997%" stop-opacity="1" style="stop-color:rgb(95,92,255)"/><stop offset="100%" stop-opacity="1" style="stop-color:rgb(124,54,255)"/></linearGradient><path d=" M 475.816 630.39 L 654.59 527.175 L 297.042 320.745 L 118.268 410.552 Q 83.009 453.424 133.165 484.169 Q 183.321 514.913 371.531 621.789 Q 428.639 657.97 475.816 630.39 Z " fill="url(#_lgradient_4)"/><linearGradient id="_lgradient_5" x1="0.9942985411702838" y1="0.2754117371732543" x2="-0.10600008823941565" y2="0.6828305724609947" gradientTransform="matrix(-550.876,0,0,321.575,654.59,307.337)" gradientUnits="userSpaceOnUse"><stop offset="2.608695652173913%" stop-opacity="1" style="stop-color:rgb(79,111,255)"/><stop offset="98.69565217391305%" stop-opacity="1" style="stop-color:rgb(10,0,153)"/><stop offset="99.99999999999997%" stop-opacity="1" style="stop-color:rgb(3,0,8)"/><stop offset="100%" stop-opacity="1" style="stop-color:rgb(10,0,153)"/></linearGradient><path d=" M 475.816 616.982 L 654.59 513.767 L 297.042 307.337 L 118.268 410.552 Q 83.009 440.016 133.165 470.761 Q 183.321 501.505 371.531 608.381 Q 428.639 644.562 475.816 616.982 Z " fill="url(#_lgradient_5)"/><path d=" M 654.59 513.767 L 654.59 527.175 L 646.739 531.675 L 641.525 521.247 L 654.59 513.767 Z " fill="rgb(1,0,5)"/><defs><linearGradient id="_lgradient_6" x1="1.0854388759349805" y1="0.9265550869251628" x2="-0.06739544060793334" y2="0.1018644553613055"><stop offset="0%" style="stop-color:#342671"/><stop offset="97.3913043478261%" style="stop-color:#291B4D"/></linearGradient></defs><path d="M 364.173 528.163 L 257.717 466.701 C 253.45 464.237 246.649 464.444 242.539 467.163 L 213.917 486.097 C 209.808 488.816 209.936 493.024 214.203 495.487 L 320.658 556.949 C 324.926 559.413 331.727 559.206 335.836 556.487 L 364.459 537.553 C 368.568 534.834 368.44 530.626 364.173 528.163 Z" style="stroke:none;fill:url(#_lgradient_6);stroke-miterlimit:10;"/><rect x="298.239" y="187.915" width="368.028" height="185.546" transform="matrix(0.866,0.5,-0.069,1.115,84.105,-273.293)" fill="rgb(6,0,34)"/><g style="mix-blend-mode:normal;" opacity="0.49"><path d="M 550.236 399.902 L 479.883 359.255 C 476.731 357.434 473.995 358.906 473.778 362.539 L 473.619 365.195 C 473.402 368.828 475.784 373.257 478.936 375.078 L 549.29 415.725 C 552.441 417.546 555.177 416.074 555.394 412.441 L 555.553 409.785 C 555.771 406.152 553.388 401.723 550.236 399.902 Z" style="stroke:none;fill:#FF73FA;stroke-miterlimit:10;"/></g><g style="mix-blend-mode:normal;" opacity="0.49"><path d="M 508.514 210.183 L 439.593 170.364 C 436.471 168.56 433.761 170.017 433.546 173.617 L 433.38 176.397 C 433.164 179.996 435.524 184.383 438.646 186.187 L 507.567 226.006 C 510.689 227.81 513.399 226.352 513.614 222.753 L 513.781 219.973 C 513.996 216.373 511.636 211.987 508.514 210.183 Z" style="stroke:none;fill:#FF73FA;stroke-miterlimit:10;"/></g><g style="mix-blend-mode:normal;" opacity="0.49"><path d="M 610.958 434.984 L 567.896 410.105 C 565.378 408.65 563.193 409.826 563.019 412.728 L 562.702 418.033 C 562.528 420.935 564.431 424.473 566.949 425.928 L 610.011 450.807 C 612.529 452.262 614.714 451.086 614.887 448.183 L 615.205 442.879 C 615.379 439.976 613.475 436.439 610.958 434.984 Z" style="stroke:none;fill:#FF4E7A;stroke-miterlimit:10;"/></g><g style="mix-blend-mode:normal;" opacity="0.49"><path d="M 522.6 352.04 L 468.742 320.923 C 465.955 319.312 463.535 320.614 463.343 323.827 L 463.093 328.005 C 462.901 331.219 465.008 335.135 467.795 336.746 L 521.653 367.863 C 524.441 369.473 526.86 368.172 527.052 364.958 L 527.302 360.78 C 527.495 357.567 525.388 353.65 522.6 352.04 Z" style="stroke:none;fill:#FF4E7A;stroke-miterlimit:10;"/></g><g style="mix-blend-mode:normal;" opacity="0.49"><path d="M 574.859 316.945 L 504.505 276.298 C 501.354 274.477 498.618 275.948 498.401 279.582 L 498.242 282.238 C 498.024 285.871 500.407 290.3 503.559 292.121 L 573.912 332.768 C 577.064 334.589 579.8 333.117 580.017 329.484 L 580.176 326.828 C 580.393 323.194 578.011 318.766 574.859 316.945 Z" style="stroke:none;fill:#FF4E7A;stroke-miterlimit:10;"/></g><g style="mix-blend-mode:normal;" opacity="0.49"><path d="M 427.415 197.475 L 383.697 172.216 C 381.188 170.767 379.011 171.938 378.838 174.831 L 378.536 179.875 C 378.363 182.767 380.259 186.292 382.768 187.742 L 426.486 213 C 428.995 214.45 431.173 213.278 431.346 210.386 L 431.648 205.342 C 431.821 202.449 429.924 198.924 427.415 197.475 Z" style="stroke:none;fill:#FF4E7A;stroke-miterlimit:10;"/></g><g style="mix-blend-mode:normal;" opacity="0.49"><path d="M 618.647 273.813 L 527.179 220.967 C 523.618 218.909 520.528 220.572 520.282 224.677 L 520.225 225.624 C 519.98 229.729 522.671 234.732 526.232 236.79 L 617.7 289.636 C 621.261 291.693 624.351 290.031 624.597 285.926 L 624.654 284.978 C 624.899 280.873 622.208 275.87 618.647 273.813 Z" style="stroke:none;fill:#FF4E7A;stroke-miterlimit:10;"/></g><g style="mix-blend-mode:normal;" opacity="0.49"><path d="M 458.673 347.001 L 385.873 304.94 C 382.671 303.09 379.892 304.585 379.671 308.277 L 379.525 310.723 C 379.304 314.414 381.724 318.913 384.926 320.763 L 457.726 362.824 C 460.928 364.674 463.707 363.179 463.928 359.487 L 464.074 357.041 C 464.295 353.35 461.875 348.851 458.673 347.001 Z" style="stroke:none;fill:#69FF7F;stroke-miterlimit:10;"/></g><g style="mix-blend-mode:normal;" opacity="0.49"><path d="M 611.654 403.491 L 541.3 362.844 C 538.148 361.023 535.413 362.494 535.195 366.128 L 535.036 368.783 C 534.819 372.417 537.201 376.845 540.353 378.666 L 610.707 419.314 C 613.859 421.135 616.594 419.663 616.812 416.029 L 616.97 413.374 C 617.188 409.74 614.805 405.312 611.654 403.491 Z" style="stroke:none;fill:#69FF7F;stroke-miterlimit:10;"/></g><g style="mix-blend-mode:normal;" opacity="0.49"><path d="M 485.425 265.274 L 430.077 233.296 C 427.254 231.666 424.805 232.983 424.61 236.237 L 424.369 240.269 C 424.174 243.523 426.307 247.489 429.13 249.119 L 484.479 281.097 C 487.301 282.728 489.751 281.41 489.945 278.156 L 490.187 274.124 C 490.381 270.871 488.248 266.905 485.425 265.274 Z" style="stroke:none;fill:#69FF7F;stroke-miterlimit:10;"/></g><g style="mix-blend-mode:normal;" opacity="0.49"><path d="M 617.898 307.219 L 559.448 273.45 C 556.555 271.778 554.043 273.129 553.843 276.465 L 553.62 280.199 C 553.42 283.535 555.608 287.601 558.502 289.273 L 616.951 323.042 C 619.845 324.714 622.357 323.363 622.556 320.027 L 622.78 316.293 C 622.979 312.957 620.792 308.891 617.898 307.219 Z" style="stroke:none;fill:#69FF7F;stroke-miterlimit:10;"/></g><g style="mix-blend-mode:normal;" opacity="0.49"><path d="M 453.768 312.271 L 385.848 273.031 C 382.747 271.239 380.056 272.687 379.842 276.262 L 379.67 279.13 C 379.456 282.705 381.8 287.062 384.901 288.853 L 452.821 328.094 C 455.922 329.886 458.613 328.438 458.827 324.863 L 458.999 321.995 C 459.213 318.42 456.869 314.063 453.768 312.271 Z" style="stroke:none;fill:#75E8FF;stroke-miterlimit:10;"/></g><g style="mix-blend-mode:normal;" opacity="0.49"><path d="M 612.688 373.393 L 521.22 320.546 C 517.659 318.489 514.569 320.152 514.323 324.257 L 514.266 325.204 C 514.021 329.309 516.712 334.312 520.273 336.369 L 611.741 389.216 C 615.302 391.273 618.392 389.61 618.638 385.505 L 618.695 384.558 C 618.94 380.453 616.249 375.45 612.688 373.393 Z" style="stroke:none;fill:#75E8FF;stroke-miterlimit:10;"/></g><g style="mix-blend-mode:normal;" opacity="0.49"><path d="M 424.842 161.841 L 391.282 142.451 C 389.031 141.151 387.077 142.202 386.921 144.797 L 386.537 151.215 C 386.382 153.811 388.084 156.974 390.335 158.274 L 423.895 177.664 C 426.146 178.965 428.1 177.914 428.255 175.318 L 428.639 168.9 C 428.795 166.305 427.093 163.142 424.842 161.841 Z" style="stroke:none;fill:#75E8FF;stroke-miterlimit:10;"/></g><g style="mix-blend-mode:normal;" opacity="0.49"><path d="M 540.352 262.416 L 444.729 207.17 C 441.093 205.069 437.938 206.767 437.687 210.958 L 437.649 211.593 C 437.398 215.784 440.146 220.892 443.782 222.993 L 539.405 278.239 C 543.04 280.34 546.195 278.642 546.446 274.451 L 546.484 273.816 C 546.735 269.625 543.987 264.517 540.352 262.416 Z" style="stroke:none;fill:#75E8FF;stroke-miterlimit:10;"/></g><g style="mix-blend-mode:normal;" opacity="0.49"><path d="M 617.433 341.542 L 590.38 325.912 C 588.334 324.73 586.558 325.686 586.417 328.045 L 585.981 335.319 C 585.84 337.678 587.387 340.553 589.433 341.735 L 616.486 357.365 C 618.533 358.548 620.308 357.592 620.45 355.233 L 620.885 347.959 C 621.026 345.6 619.479 342.725 617.433 341.542 Z" style="stroke:none;fill:#FF73FA;stroke-miterlimit:10;"/></g><g opacity="0.44"><rect x="210.576" y="179.94" width="368.028" height="185.546" transform="matrix(0.866,0.5,-0.069,1.115,71.807,-228.548)" fill="rgb(253,228,212)"/></g><g opacity="0.74"><path d=" M 548.624 467.029 L 561.512 260.22 L 242.79 76.206" fill="none" vector-effect="non-scaling-stroke" stroke-width="3" stroke="rgb(255,255,255)" stroke-linejoin="miter" stroke-linecap="square" stroke-miterlimit="3"/></g><g style="mix-blend-mode:normal;" opacity="0.9"><path d="M 331.684 161.731 L 267.138 124.465 C 264.856 123.147 262.877 124.213 262.72 126.843 L 258.559 196.731 C 258.403 199.361 260.128 202.565 262.409 203.883 L 326.956 241.149 C 329.238 242.466 331.217 241.4 331.374 238.77 L 335.535 168.883 C 335.691 166.253 333.966 163.048 331.684 161.731 Z" style="stroke:none;fill:#FED8D9;stroke-miterlimit:10;"/></g><g style="mix-blend-mode:normal;" opacity="0.9"><path d="M 415.56 312.983 L 360.459 281.17 C 358.512 280.046 356.822 280.955 356.688 283.201 L 353.136 342.861 C 353.002 345.106 354.475 347.842 356.423 348.967 L 411.524 380.779 C 413.472 381.904 415.162 380.994 415.295 378.749 L 418.847 319.088 C 418.981 316.843 417.508 314.107 415.56 312.983 Z" style="stroke:none;fill:#FDEBD0;stroke-miterlimit:10;"/></g><g style="mix-blend-mode:normal;" opacity="0.9"><path d="M 536.089 273.975 L 466.865 234.008 C 464.06 232.389 461.627 233.699 461.435 236.931 L 453.939 362.843 C 453.746 366.076 455.867 370.015 458.671 371.634 L 527.896 411.601 C 530.7 413.22 533.133 411.91 533.325 408.677 L 540.822 282.765 C 541.014 279.533 538.894 275.594 536.089 273.975 Z" style="stroke:none;fill:#FCFFC8;stroke-miterlimit:10;"/></g><g style="mix-blend-mode:normal;" opacity="0.9"><path d="M 440.255 252.959 L 356.177 204.416 C 355.106 203.798 354.177 204.298 354.104 205.532 L 353.261 219.694 C 353.187 220.928 353.997 222.432 355.068 223.05 L 439.146 271.593 C 440.216 272.211 441.145 271.711 441.219 270.476 L 442.062 256.315 C 442.135 255.081 441.326 253.577 440.255 252.959 Z" style="stroke:none;fill:#FCFFC8;stroke-miterlimit:10;"/></g><g style="mix-blend-mode:normal;" opacity="0.9"><path d="M 444.664 222.804 L 360.747 174.355 C 359.632 173.711 358.664 174.232 358.588 175.517 L 357.756 189.492 C 357.679 190.778 358.523 192.344 359.638 192.988 L 443.554 241.437 C 444.67 242.081 445.637 241.56 445.714 240.275 L 446.546 226.3 C 446.622 225.014 445.779 223.448 444.664 222.804 Z" style="stroke:none;fill:#FCFFC8;stroke-miterlimit:10;"/></g><g style="mix-blend-mode:normal;" opacity="0.9"><path d="M 436.941 286.432 L 353.348 238.169 C 352.144 237.474 351.099 238.037 351.016 239.425 L 350.206 253.028 C 350.124 254.416 351.034 256.108 352.239 256.803 L 435.832 305.066 C 437.037 305.761 438.082 305.198 438.164 303.81 L 438.974 290.207 C 439.057 288.819 438.146 287.127 436.941 286.432 Z" style="stroke:none;fill:#FCFFC8;stroke-miterlimit:10;"/></g><g style="mix-blend-mode:normal;" opacity="0.9"><path d="M 331.891 270.991 L 248.698 222.96 C 246.534 221.71 244.656 222.721 244.507 225.216 L 241.584 274.321 C 241.435 276.816 243.072 279.856 245.237 281.106 L 328.429 329.137 C 330.594 330.387 332.472 329.376 332.621 326.881 L 335.544 277.776 C 335.693 275.281 334.056 272.241 331.891 270.991 Z" style="stroke:none;fill:#FEC8E0;stroke-miterlimit:10;"/></g><g style="mix-blend-mode:normal;" opacity="0.9"><path d="M 529.138 425.57 L 432.393 369.715 C 431.412 369.148 430.56 369.607 430.493 370.738 L 429.628 385.272 C 429.56 386.403 430.303 387.782 431.284 388.348 L 528.029 444.204 C 529.01 444.771 529.862 444.312 529.929 443.181 L 530.794 428.647 C 530.862 427.515 530.12 426.137 529.138 425.57 Z" style="stroke:none;fill:#FCFFC8;stroke-miterlimit:10;"/></g><g opacity="0.9"><linearGradient id="_lgradient_7" x1="0.10819982311204712" y1="0.4898969429719946" x2="0.9107826333124044" y2="0.5810726939991355" gradientTransform="matrix(-423.168,-244.168,-423.168,244.168,809.16,461.033)" gradientUnits="userSpaceOnUse"><stop offset="0%" stop-opacity="1" style="stop-color:rgb(252,255,200)"/><stop offset="100%" stop-opacity="1" style="stop-color:rgb(254,196,225)"/></linearGradient><path d=" M 287.231 339.072 L 304.54 349.059 C 304.896 349.265 304.896 349.598 304.54 349.804 L 298.893 353.062 C 298.537 353.268 297.958 353.268 297.602 353.062 L 280.293 343.075 C 279.937 342.87 279.937 342.536 280.293 342.33 L 285.94 339.072 C 286.296 338.866 286.875 338.866 287.231 339.072 L 287.231 339.072 L 287.231 339.072 L 287.231 339.072 L 287.231 339.072 L 287.231 339.072 L 287.231 339.072 L 287.231 339.072 L 287.231 339.072 L 287.231 339.072 L 287.231 339.072 L 287.231 339.072 L 287.231 339.072 L 287.231 339.072 L 287.231 339.072 L 287.231 339.072 L 287.231 339.072 L 287.231 339.072 L 287.231 339.072 L 287.231 339.072 L 287.231 339.072 L 287.231 339.072 L 287.231 339.072 L 287.231 339.072 L 287.231 339.072 L 287.231 339.072 L 287.231 339.072 L 287.231 339.072 L 287.231 339.072 L 287.231 339.072 L 287.231 339.072 L 287.231 339.072 L 287.231 339.072 L 287.231 339.072 L 287.231 339.072 L 287.231 339.072 L 287.231 339.072 L 287.231 339.072 L 287.231 339.072 L 287.231 339.072 L 287.231 339.072 L 287.231 339.072 L 287.231 339.072 L 287.231 339.072 L 287.231 339.072 L 287.231 339.072 L 287.231 339.072 L 287.231 339.072 L 287.231 339.072 L 287.231 339.072 L 287.231 339.072 L 287.231 339.072 L 287.231 339.072 L 287.231 339.072 L 287.231 339.072 L 287.231 339.072 L 287.231 339.072 L 287.231 339.072 L 287.231 339.072 L 287.231 339.072 L 287.231 339.072 L 287.231 339.072 L 287.231 339.072 L 287.231 339.072 L 287.231 339.072 L 287.231 339.072 L 287.231 339.072 L 287.231 339.072 L 287.231 339.072 L 287.231 339.072 L 287.231 339.072 L 287.231 339.072 L 287.231 339.072 L 287.231 339.072 L 287.231 339.072 L 287.231 339.072 Z  M 309.748 352.064 L 327.057 362.051 C 327.413 362.257 327.413 362.591 327.057 362.796 L 321.41 366.054 C 321.053 366.26 320.475 366.26 320.119 366.054 L 302.81 356.067 C 302.454 355.862 302.454 355.528 302.81 355.322 L 308.457 352.064 C 308.813 351.858 309.392 351.858 309.748 352.064 L 309.748 352.064 L 309.748 352.064 L 309.748 352.064 L 309.748 352.064 L 309.748 352.064 L 309.748 352.064 L 309.748 352.064 L 309.748 352.064 L 309.748 352.064 L 309.748 352.064 L 309.748 352.064 L 309.748 352.064 L 309.748 352.064 L 309.748 352.064 L 309.748 352.064 L 309.748 352.064 L 309.748 352.064 L 309.748 352.064 L 309.748 352.064 L 309.748 352.064 L 309.748 352.064 L 309.748 352.064 L 309.748 352.064 L 309.748 352.064 L 309.748 352.064 L 309.748 352.064 L 309.748 352.064 L 309.748 352.064 L 309.748 352.064 L 309.748 352.064 L 309.748 352.064 L 309.748 352.064 L 309.748 352.064 L 309.748 352.064 L 309.748 352.064 L 309.748 352.064 L 309.748 352.064 L 309.748 352.064 L 309.748 352.064 L 309.748 352.064 L 309.748 352.064 L 309.748 352.064 L 309.748 352.064 L 309.748 352.064 L 309.748 352.064 L 309.748 352.064 L 309.748 352.064 L 309.748 352.064 L 309.748 352.064 L 309.748 352.064 L 309.748 352.064 L 309.748 352.064 L 309.748 352.064 L 309.748 352.064 L 309.748 352.064 L 309.748 352.064 L 309.748 352.064 L 309.748 352.064 L 309.748 352.064 L 309.748 352.064 L 309.748 352.064 L 309.748 352.064 L 309.748 352.064 L 309.748 352.064 L 309.748 352.064 L 309.748 352.064 L 309.748 352.064 L 309.748 352.064 L 309.748 352.064 L 309.748 352.064 L 309.748 352.064 L 309.748 352.064 L 309.748 352.064 L 309.748 352.064 L 309.748 352.064 Z  M 332.264 365.056 L 349.573 375.043 C 349.929 375.249 349.929 375.583 349.573 375.788 L 343.926 379.046 C 343.57 379.252 342.991 379.252 342.635 379.046 L 325.326 369.059 C 324.97 368.854 324.97 368.52 325.326 368.314 L 330.973 365.056 C 331.33 364.85 331.908 364.85 332.264 365.056 L 332.264 365.056 L 332.264 365.056 L 332.264 365.056 L 332.264 365.056 L 332.264 365.056 L 332.264 365.056 L 332.264 365.056 L 332.264 365.056 L 332.264 365.056 L 332.264 365.056 L 332.264 365.056 L 332.264 365.056 L 332.264 365.056 L 332.264 365.056 L 332.264 365.056 L 332.264 365.056 L 332.264 365.056 L 332.264 365.056 L 332.264 365.056 L 332.264 365.056 L 332.264 365.056 L 332.264 365.056 L 332.264 365.056 L 332.264 365.056 L 332.264 365.056 L 332.264 365.056 L 332.264 365.056 L 332.264 365.056 L 332.264 365.056 L 332.264 365.056 L 332.264 365.056 L 332.264 365.056 L 332.264 365.056 L 332.264 365.056 L 332.264 365.056 L 332.264 365.056 L 332.264 365.056 L 332.264 365.056 L 332.264 365.056 L 332.264 365.056 L 332.264 365.056 L 332.264 365.056 L 332.264 365.056 L 332.264 365.056 L 332.264 365.056 L 332.264 365.056 L 332.264 365.056 L 332.264 365.056 L 332.264 365.056 L 332.264 365.056 L 332.264 365.056 L 332.264 365.056 L 332.264 365.056 L 332.264 365.056 L 332.264 365.056 L 332.264 365.056 L 332.264 365.056 L 332.264 365.056 L 332.264 365.056 L 332.264 365.056 L 332.264 365.056 L 332.264 365.056 L 332.264 365.056 L 332.264 365.056 L 332.264 365.056 L 332.264 365.056 L 332.264 365.056 L 332.264 365.056 L 332.264 365.056 L 332.264 365.056 L 332.264 365.056 L 332.264 365.056 L 332.264 365.056 L 332.264 365.056 Z  M 354.781 378.048 L 372.09 388.035 C 372.446 388.241 372.446 388.575 372.09 388.78 L 366.443 392.038 C 366.086 392.244 365.508 392.244 365.152 392.038 L 347.843 382.051 C 347.487 381.846 347.487 381.512 347.843 381.306 L 353.49 378.048 C 353.846 377.843 354.425 377.843 354.781 378.048 L 354.781 378.048 L 354.781 378.048 L 354.781 378.048 L 354.781 378.048 L 354.781 378.048 L 354.781 378.048 L 354.781 378.048 L 354.781 378.048 L 354.781 378.048 L 354.781 378.048 L 354.781 378.048 L 354.781 378.048 L 354.781 378.048 L 354.781 378.048 L 354.781 378.048 L 354.781 378.048 L 354.781 378.048 L 354.781 378.048 L 354.781 378.048 L 354.781 378.048 L 354.781 378.048 L 354.781 378.048 L 354.781 378.048 L 354.781 378.048 L 354.781 378.048 L 354.781 378.048 L 354.781 378.048 L 354.781 378.048 L 354.781 378.048 L 354.781 378.048 L 354.781 378.048 L 354.781 378.048 L 354.781 378.048 L 354.781 378.048 L 354.781 378.048 L 354.781 378.048 L 354.781 378.048 L 354.781 378.048 L 354.781 378.048 L 354.781 378.048 L 354.781 378.048 L 354.781 378.048 L 354.781 378.048 L 354.781 378.048 L 354.781 378.048 L 354.781 378.048 L 354.781 378.048 L 354.781 378.048 L 354.781 378.048 L 354.781 378.048 L 354.781 378.048 L 354.781 378.048 L 354.781 378.048 L 354.781 378.048 L 354.781 378.048 L 354.781 378.048 L 354.781 378.048 L 354.781 378.048 L 354.781 378.048 L 354.781 378.048 L 354.781 378.048 L 354.781 378.048 L 354.781 378.048 L 354.781 378.048 L 354.781 378.048 L 354.781 378.048 L 354.781 378.048 L 354.781 378.048 L 354.781 378.048 L 354.781 378.048 L 354.781 378.048 L 354.781 378.048 L 354.781 378.048 Z  M 377.298 391.04 L 394.606 401.027 C 394.963 401.233 394.963 401.567 394.606 401.772 L 388.959 405.031 C 388.603 405.236 388.025 405.236 387.668 405.031 L 370.36 395.043 C 370.003 394.838 370.003 394.504 370.36 394.298 L 376.006 391.04 C 376.363 390.835 376.941 390.835 377.298 391.04 L 377.298 391.04 L 377.298 391.04 L 377.298 391.04 L 377.298 391.04 L 377.298 391.04 L 377.298 391.04 L 377.298 391.04 L 377.298 391.04 L 377.298 391.04 L 377.298 391.04 L 377.298 391.04 L 377.298 391.04 L 377.298 391.04 L 377.298 391.04 L 377.298 391.04 L 377.298 391.04 L 377.298 391.04 L 377.298 391.04 L 377.298 391.04 L 377.298 391.04 L 377.298 391.04 L 377.298 391.04 L 377.298 391.04 L 377.298 391.04 L 377.298 391.04 L 377.298 391.04 L 377.298 391.04 L 377.298 391.04 L 377.298 391.04 L 377.298 391.04 L 377.298 391.04 L 377.298 391.04 L 377.298 391.04 L 377.298 391.04 L 377.298 391.04 L 377.298 391.04 L 377.298 391.04 L 377.298 391.04 L 377.298 391.04 L 377.298 391.04 L 377.298 391.04 L 377.298 391.04 L 377.298 391.04 L 377.298 391.04 L 377.298 391.04 L 377.298 391.04 L 377.298 391.04 L 377.298 391.04 L 377.298 391.04 L 377.298 391.04 L 377.298 391.04 L 377.298 391.04 L 377.298 391.04 L 377.298 391.04 L 377.298 391.04 L 377.298 391.04 L 377.298 391.04 L 377.298 391.04 L 377.298 391.04 L 377.298 391.04 L 377.298 391.04 L 377.298 391.04 L 377.298 391.04 L 377.298 391.04 L 377.298 391.04 L 377.298 391.04 L 377.298 391.04 L 377.298 391.04 L 377.298 391.04 L 377.298 391.04 L 377.298 391.04 L 377.298 391.04 Z  M 399.814 404.032 L 417.123 414.019 C 417.479 414.225 417.479 414.559 417.123 414.764 L 411.476 418.023 C 411.12 418.228 410.541 418.228 410.185 418.023 L 392.876 408.035 C 392.52 407.83 392.52 407.496 392.876 407.29 L 398.523 404.032 C 398.879 403.827 399.458 403.827 399.814 404.032 L 399.814 404.032 L 399.814 404.032 L 399.814 404.032 L 399.814 404.032 L 399.814 404.032 L 399.814 404.032 L 399.814 404.032 L 399.814 404.032 L 399.814 404.032 L 399.814 404.032 L 399.814 404.032 L 399.814 404.032 L 399.814 404.032 L 399.814 404.032 L 399.814 404.032 L 399.814 404.032 L 399.814 404.032 L 399.814 404.032 L 399.814 404.032 L 399.814 404.032 L 399.814 404.032 L 399.814 404.032 L 399.814 404.032 L 399.814 404.032 L 399.814 404.032 L 399.814 404.032 L 399.814 404.032 L 399.814 404.032 L 399.814 404.032 L 399.814 404.032 L 399.814 404.032 L 399.814 404.032 L 399.814 404.032 L 399.814 404.032 L 399.814 404.032 L 399.814 404.032 L 399.814 404.032 L 399.814 404.032 L 399.814 404.032 L 399.814 404.032 L 399.814 404.032 L 399.814 404.032 L 399.814 404.032 L 399.814 404.032 L 399.814 404.032 L 399.814 404.032 L 399.814 404.032 L 399.814 404.032 L 399.814 404.032 L 399.814 404.032 L 399.814 404.032 L 399.814 404.032 L 399.814 404.032 L 399.814 404.032 L 399.814 404.032 L 399.814 404.032 L 399.814 404.032 L 399.814 404.032 L 399.814 404.032 L 399.814 404.032 L 399.814 404.032 L 399.814 404.032 L 399.814 404.032 L 399.814 404.032 L 399.814 404.032 L 399.814 404.032 L 399.814 404.032 L 399.814 404.032 L 399.814 404.032 L 399.814 404.032 L 399.814 404.032 Z  M 469.276 554.617 L 482.962 562.514 C 483.283 562.699 483.283 562.999 482.962 563.184 L 477.095 566.569 C 476.775 566.754 476.255 566.754 475.934 566.569 L 462.248 558.672 C 461.928 558.487 461.928 558.187 462.248 558.002 L 468.115 554.617 C 468.436 554.432 468.956 554.432 469.276 554.617 L 469.276 554.617 L 469.276 554.617 L 469.276 554.617 L 469.276 554.617 L 469.276 554.617 L 469.276 554.617 L 469.276 554.617 L 469.276 554.617 L 469.276 554.617 L 469.276 554.617 L 469.276 554.617 L 469.276 554.617 L 469.276 554.617 L 469.276 554.617 L 469.276 554.617 L 469.276 554.617 L 469.276 554.617 L 469.276 554.617 L 469.276 554.617 L 469.276 554.617 L 469.276 554.617 L 469.276 554.617 L 469.276 554.617 L 469.276 554.617 L 469.276 554.617 L 469.276 554.617 L 469.276 554.617 L 469.276 554.617 L 469.276 554.617 L 469.276 554.617 L 469.276 554.617 L 469.276 554.617 L 469.276 554.617 L 469.276 554.617 L 469.276 554.617 L 469.276 554.617 L 469.276 554.617 L 469.276 554.617 L 469.276 554.617 L 469.276 554.617 L 469.276 554.617 L 469.276 554.617 L 469.276 554.617 L 469.276 554.617 L 469.276 554.617 L 469.276 554.617 L 469.276 554.617 L 469.276 554.617 L 469.276 554.617 L 469.276 554.617 L 469.276 554.617 L 469.276 554.617 L 469.276 554.617 L 469.276 554.617 L 469.276 554.617 L 469.276 554.617 L 469.276 554.617 L 469.276 554.617 L 469.276 554.617 L 469.276 554.617 L 469.276 554.617 L 469.276 554.617 L 469.276 554.617 L 469.276 554.617 L 469.276 554.617 L 469.276 554.617 L 469.276 554.617 L 469.276 554.617 L 469.276 554.617 L 469.276 554.617 Z  M 459.384 560.324 L 473.07 568.221 C 473.391 568.406 473.391 568.706 473.07 568.891 L 467.203 572.277 C 466.883 572.462 466.362 572.462 466.042 572.277 L 452.356 564.38 C 452.035 564.195 452.035 563.895 452.356 563.71 L 458.223 560.324 C 458.543 560.14 459.064 560.14 459.384 560.324 L 459.384 560.324 L 459.384 560.324 L 459.384 560.324 L 459.384 560.324 L 459.384 560.324 L 459.384 560.324 L 459.384 560.324 L 459.384 560.324 L 459.384 560.324 L 459.384 560.324 L 459.384 560.324 L 459.384 560.324 L 459.384 560.324 L 459.384 560.324 L 459.384 560.324 L 459.384 560.324 L 459.384 560.324 L 459.384 560.324 L 459.384 560.324 L 459.384 560.324 L 459.384 560.324 L 459.384 560.324 L 459.384 560.324 L 459.384 560.324 L 459.384 560.324 L 459.384 560.324 L 459.384 560.324 L 459.384 560.324 L 459.384 560.324 L 459.384 560.324 L 459.384 560.324 L 459.384 560.324 L 459.384 560.324 L 459.384 560.324 L 459.384 560.324 L 459.384 560.324 L 459.384 560.324 L 459.384 560.324 L 459.384 560.324 L 459.384 560.324 L 459.384 560.324 L 459.384 560.324 L 459.384 560.324 L 459.384 560.324 L 459.384 560.324 L 459.384 560.324 L 459.384 560.324 L 459.384 560.324 L 459.384 560.324 L 459.384 560.324 L 459.384 560.324 L 459.384 560.324 L 459.384 560.324 L 459.384 560.324 L 459.384 560.324 L 459.384 560.324 L 459.384 560.324 L 459.384 560.324 L 459.384 560.324 L 459.384 560.324 L 459.384 560.324 L 459.384 560.324 L 459.384 560.324 L 459.384 560.324 L 459.384 560.324 L 459.384 560.324 L 459.384 560.324 L 459.384 560.324 L 459.384 560.324 Z  M 477.984 571.057 L 491.67 578.954 C 491.99 579.138 491.99 579.439 491.67 579.623 L 485.803 583.009 C 485.483 583.194 484.962 583.194 484.642 583.009 L 470.956 575.112 C 470.635 574.927 470.635 574.627 470.956 574.442 L 476.823 571.057 C 477.143 570.872 477.663 570.872 477.984 571.057 L 477.984 571.057 L 477.984 571.057 L 477.984 571.057 L 477.984 571.057 L 477.984 571.057 L 477.984 571.057 L 477.984 571.057 L 477.984 571.057 L 477.984 571.057 L 477.984 571.057 L 477.984 571.057 L 477.984 571.057 L 477.984 571.057 L 477.984 571.057 L 477.984 571.057 L 477.984 571.057 L 477.984 571.057 L 477.984 571.057 L 477.984 571.057 L 477.984 571.057 L 477.984 571.057 L 477.984 571.057 L 477.984 571.057 L 477.984 571.057 L 477.984 571.057 L 477.984 571.057 L 477.984 571.057 L 477.984 571.057 L 477.984 571.057 L 477.984 571.057 L 477.984 571.057 L 477.984 571.057 L 477.984 571.057 L 477.984 571.057 L 477.984 571.057 L 477.984 571.057 L 477.984 571.057 L 477.984 571.057 L 477.984 571.057 L 477.984 571.057 L 477.984 571.057 L 477.984 571.057 L 477.984 571.057 L 477.984 571.057 L 477.984 571.057 L 477.984 571.057 L 477.984 571.057 L 477.984 571.057 L 477.984 571.057 L 477.984 571.057 L 477.984 571.057 L 477.984 571.057 L 477.984 571.057 L 477.984 571.057 L 477.984 571.057 L 477.984 571.057 L 477.984 571.057 L 477.984 571.057 L 477.984 571.057 L 477.984 571.057 L 477.984 571.057 L 477.984 571.057 L 477.984 571.057 L 477.984 571.057 L 477.984 571.057 L 477.984 571.057 L 477.984 571.057 L 477.984 571.057 Z  M 422.331 417.024 L 439.639 427.011 C 439.996 427.217 439.996 427.551 439.639 427.756 L 433.992 431.015 C 433.636 431.22 433.058 431.22 432.701 431.015 L 415.393 421.028 C 415.036 420.822 415.036 420.488 415.393 420.283 L 421.04 417.024 C 421.396 416.819 421.974 416.819 422.331 417.024 L 422.331 417.024 L 422.331 417.024 L 422.331 417.024 L 422.331 417.024 L 422.331 417.024 L 422.331 417.024 L 422.331 417.024 L 422.331 417.024 L 422.331 417.024 L 422.331 417.024 L 422.331 417.024 L 422.331 417.024 L 422.331 417.024 L 422.331 417.024 L 422.331 417.024 L 422.331 417.024 L 422.331 417.024 L 422.331 417.024 L 422.331 417.024 L 422.331 417.024 L 422.331 417.024 L 422.331 417.024 L 422.331 417.024 L 422.331 417.024 L 422.331 417.024 L 422.331 417.024 L 422.331 417.024 L 422.331 417.024 L 422.331 417.024 L 422.331 417.024 L 422.331 417.024 L 422.331 417.024 L 422.331 417.024 L 422.331 417.024 L 422.331 417.024 L 422.331 417.024 L 422.331 417.024 L 422.331 417.024 L 422.331 417.024 L 422.331 417.024 L 422.331 417.024 L 422.331 417.024 L 422.331 417.024 L 422.331 417.024 L 422.331 417.024 L 422.331 417.024 L 422.331 417.024 L 422.331 417.024 L 422.331 417.024 L 422.331 417.024 L 422.331 417.024 L 422.331 417.024 L 422.331 417.024 L 422.331 417.024 L 422.331 417.024 L 422.331 417.024 L 422.331 417.024 L 422.331 417.024 L 422.331 417.024 L 422.331 417.024 L 422.331 417.024 L 422.331 417.024 L 422.331 417.024 L 422.331 417.024 L 422.331 417.024 L 422.331 417.024 L 422.331 417.024 Z  M 444.847 430.016 L 462.156 440.003 C 462.512 440.209 462.512 440.543 462.156 440.748 L 456.509 444.007 C 456.153 444.212 455.574 444.212 455.218 444.007 L 437.909 434.02 C 437.553 433.814 437.553 433.48 437.909 433.275 L 443.556 430.016 C 443.912 429.811 444.491 429.811 444.847 430.016 L 444.847 430.016 L 444.847 430.016 L 444.847 430.016 L 444.847 430.016 L 444.847 430.016 L 444.847 430.016 L 444.847 430.016 L 444.847 430.016 L 444.847 430.016 L 444.847 430.016 L 444.847 430.016 L 444.847 430.016 L 444.847 430.016 L 444.847 430.016 L 444.847 430.016 L 444.847 430.016 L 444.847 430.016 L 444.847 430.016 L 444.847 430.016 L 444.847 430.016 L 444.847 430.016 L 444.847 430.016 L 444.847 430.016 L 444.847 430.016 L 444.847 430.016 L 444.847 430.016 L 444.847 430.016 L 444.847 430.016 L 444.847 430.016 L 444.847 430.016 L 444.847 430.016 L 444.847 430.016 L 444.847 430.016 L 444.847 430.016 L 444.847 430.016 L 444.847 430.016 L 444.847 430.016 L 444.847 430.016 L 444.847 430.016 L 444.847 430.016 L 444.847 430.016 L 444.847 430.016 L 444.847 430.016 L 444.847 430.016 L 444.847 430.016 L 444.847 430.016 L 444.847 430.016 L 444.847 430.016 L 444.847 430.016 L 444.847 430.016 L 444.847 430.016 L 444.847 430.016 L 444.847 430.016 L 444.847 430.016 L 444.847 430.016 L 444.847 430.016 L 444.847 430.016 L 444.847 430.016 L 444.847 430.016 L 444.847 430.016 L 444.847 430.016 L 444.847 430.016 L 444.847 430.016 L 444.847 430.016 L 444.847 430.016 L 444.847 430.016 Z  M 467.364 443.008 L 484.672 452.996 C 485.029 453.201 485.029 453.535 484.672 453.74 L 479.026 456.999 C 478.669 457.204 478.091 457.204 477.734 456.999 L 460.426 447.012 C 460.069 446.806 460.069 446.472 460.426 446.267 L 466.073 443.008 C 466.429 442.803 467.007 442.803 467.364 443.008 L 467.364 443.008 L 467.364 443.008 L 467.364 443.008 L 467.364 443.008 L 467.364 443.008 L 467.364 443.008 L 467.364 443.008 L 467.364 443.008 L 467.364 443.008 L 467.364 443.008 L 467.364 443.008 L 467.364 443.008 L 467.364 443.008 L 467.364 443.008 L 467.364 443.008 L 467.364 443.008 L 467.364 443.008 L 467.364 443.008 L 467.364 443.008 L 467.364 443.008 L 467.364 443.008 L 467.364 443.008 L 467.364 443.008 L 467.364 443.008 L 467.364 443.008 L 467.364 443.008 L 467.364 443.008 L 467.364 443.008 L 467.364 443.008 L 467.364 443.008 L 467.364 443.008 L 467.364 443.008 L 467.364 443.008 L 467.364 443.008 L 467.364 443.008 L 467.364 443.008 L 467.364 443.008 L 467.364 443.008 L 467.364 443.008 L 467.364 443.008 L 467.364 443.008 L 467.364 443.008 L 467.364 443.008 L 467.364 443.008 L 467.364 443.008 L 467.364 443.008 L 467.364 443.008 L 467.364 443.008 L 467.364 443.008 L 467.364 443.008 L 467.364 443.008 L 467.364 443.008 L 467.364 443.008 L 467.364 443.008 L 467.364 443.008 L 467.364 443.008 L 467.364 443.008 L 467.364 443.008 L 467.364 443.008 L 467.364 443.008 L 467.364 443.008 L 467.364 443.008 L 467.364 443.008 L 467.364 443.008 L 467.364 443.008 Z  M 489.88 456 L 507.189 465.988 C 507.545 466.193 507.545 466.527 507.189 466.733 L 501.542 469.991 C 501.186 470.196 500.607 470.196 500.251 469.991 L 482.942 460.004 C 482.586 459.798 482.586 459.464 482.942 459.259 L 488.589 456 C 488.946 455.795 489.524 455.795 489.88 456 L 489.88 456 L 489.88 456 L 489.88 456 L 489.88 456 L 489.88 456 L 489.88 456 L 489.88 456 L 489.88 456 L 489.88 456 L 489.88 456 L 489.88 456 L 489.88 456 L 489.88 456 L 489.88 456 L 489.88 456 L 489.88 456 L 489.88 456 L 489.88 456 L 489.88 456 L 489.88 456 L 489.88 456 L 489.88 456 L 489.88 456 L 489.88 456 L 489.88 456 L 489.88 456 L 489.88 456 L 489.88 456 L 489.88 456 L 489.88 456 L 489.88 456 L 489.88 456 L 489.88 456 L 489.88 456 L 489.88 456 L 489.88 456 L 489.88 456 L 489.88 456 L 489.88 456 L 489.88 456 L 489.88 456 L 489.88 456 L 489.88 456 L 489.88 456 L 489.88 456 L 489.88 456 L 489.88 456 L 489.88 456 L 489.88 456 L 489.88 456 L 489.88 456 L 489.88 456 L 489.88 456 L 489.88 456 L 489.88 456 L 489.88 456 L 489.88 456 L 489.88 456 L 489.88 456 L 489.88 456 L 489.88 456 L 489.88 456 L 489.88 456 L 489.88 456 Z  M 512.397 468.992 L 529.706 478.98 C 530.062 479.185 530.062 479.519 529.706 479.725 L 524.059 482.983 C 523.702 483.188 523.124 483.188 522.768 482.983 L 505.459 472.996 C 505.103 472.79 505.103 472.456 505.459 472.251 L 511.106 468.992 C 511.462 468.787 512.041 468.787 512.397 468.992 L 512.397 468.992 L 512.397 468.992 L 512.397 468.992 L 512.397 468.992 L 512.397 468.992 L 512.397 468.992 L 512.397 468.992 L 512.397 468.992 L 512.397 468.992 L 512.397 468.992 L 512.397 468.992 L 512.397 468.992 L 512.397 468.992 L 512.397 468.992 L 512.397 468.992 L 512.397 468.992 L 512.397 468.992 L 512.397 468.992 L 512.397 468.992 L 512.397 468.992 L 512.397 468.992 L 512.397 468.992 L 512.397 468.992 L 512.397 468.992 L 512.397 468.992 L 512.397 468.992 L 512.397 468.992 L 512.397 468.992 L 512.397 468.992 L 512.397 468.992 L 512.397 468.992 L 512.397 468.992 L 512.397 468.992 L 512.397 468.992 L 512.397 468.992 L 512.397 468.992 L 512.397 468.992 L 512.397 468.992 L 512.397 468.992 L 512.397 468.992 L 512.397 468.992 L 512.397 468.992 L 512.397 468.992 L 512.397 468.992 L 512.397 468.992 L 512.397 468.992 L 512.397 468.992 L 512.397 468.992 L 512.397 468.992 L 512.397 468.992 L 512.397 468.992 L 512.397 468.992 L 512.397 468.992 L 512.397 468.992 L 512.397 468.992 L 512.397 468.992 L 512.397 468.992 L 512.397 468.992 L 512.397 468.992 L 512.397 468.992 L 512.397 468.992 L 512.397 468.992 L 512.397 468.992 Z  M 534.913 481.985 L 552.222 491.972 C 552.578 492.177 552.578 492.511 552.222 492.717 L 546.575 495.975 C 546.219 496.18 545.64 496.18 545.284 495.975 L 527.975 485.988 C 527.619 485.782 527.619 485.448 527.975 485.243 L 533.622 481.985 C 533.979 481.779 534.557 481.779 534.913 481.985 L 534.913 481.985 L 534.913 481.985 L 534.913 481.985 L 534.913 481.985 L 534.913 481.985 L 534.913 481.985 L 534.913 481.985 L 534.913 481.985 L 534.913 481.985 L 534.913 481.985 L 534.913 481.985 L 534.913 481.985 L 534.913 481.985 L 534.913 481.985 L 534.913 481.985 L 534.913 481.985 L 534.913 481.985 L 534.913 481.985 L 534.913 481.985 L 534.913 481.985 L 534.913 481.985 L 534.913 481.985 L 534.913 481.985 L 534.913 481.985 L 534.913 481.985 L 534.913 481.985 L 534.913 481.985 L 534.913 481.985 L 534.913 481.985 L 534.913 481.985 L 534.913 481.985 L 534.913 481.985 L 534.913 481.985 L 534.913 481.985 L 534.913 481.985 L 534.913 481.985 L 534.913 481.985 L 534.913 481.985 L 534.913 481.985 L 534.913 481.985 L 534.913 481.985 L 534.913 481.985 L 534.913 481.985 L 534.913 481.985 L 534.913 481.985 L 534.913 481.985 L 534.913 481.985 L 534.913 481.985 L 534.913 481.985 L 534.913 481.985 L 534.913 481.985 L 534.913 481.985 L 534.913 481.985 L 534.913 481.985 L 534.913 481.985 L 534.913 481.985 L 534.913 481.985 L 534.913 481.985 L 534.913 481.985 L 534.913 481.985 L 534.913 481.985 L 534.913 481.985 Z  M 557.43 494.977 L 574.739 504.964 C 575.095 505.169 575.095 505.503 574.739 505.709 L 569.092 508.967 C 568.736 509.173 568.157 509.173 567.801 508.967 L 550.492 498.98 C 550.136 498.774 550.136 498.44 550.492 498.235 L 556.139 494.977 C 556.495 494.771 557.074 494.771 557.43 494.977 L 557.43 494.977 L 557.43 494.977 L 557.43 494.977 L 557.43 494.977 L 557.43 494.977 L 557.43 494.977 L 557.43 494.977 L 557.43 494.977 L 557.43 494.977 L 557.43 494.977 L 557.43 494.977 L 557.43 494.977 L 557.43 494.977 L 557.43 494.977 L 557.43 494.977 L 557.43 494.977 L 557.43 494.977 L 557.43 494.977 L 557.43 494.977 L 557.43 494.977 L 557.43 494.977 L 557.43 494.977 L 557.43 494.977 L 557.43 494.977 L 557.43 494.977 L 557.43 494.977 L 557.43 494.977 L 557.43 494.977 L 557.43 494.977 L 557.43 494.977 L 557.43 494.977 L 557.43 494.977 L 557.43 494.977 L 557.43 494.977 L 557.43 494.977 L 557.43 494.977 L 557.43 494.977 L 557.43 494.977 L 557.43 494.977 L 557.43 494.977 L 557.43 494.977 L 557.43 494.977 L 557.43 494.977 L 557.43 494.977 L 557.43 494.977 L 557.43 494.977 L 557.43 494.977 L 557.43 494.977 L 557.43 494.977 L 557.43 494.977 L 557.43 494.977 L 557.43 494.977 L 557.43 494.977 L 557.43 494.977 L 557.43 494.977 L 557.43 494.977 L 557.43 494.977 L 557.43 494.977 L 557.43 494.977 L 557.43 494.977 L 557.43 494.977 Z  M 579.947 507.969 L 597.255 517.956 C 597.612 518.161 597.612 518.495 597.255 518.701 L 591.608 521.959 C 591.252 522.165 590.674 522.165 590.317 521.959 L 573.009 511.972 C 572.652 511.766 572.652 511.433 573.009 511.227 L 578.655 507.969 C 579.012 507.763 579.59 507.763 579.947 507.969 L 579.947 507.969 L 579.947 507.969 L 579.947 507.969 L 579.947 507.969 L 579.947 507.969 L 579.947 507.969 L 579.947 507.969 L 579.947 507.969 L 579.947 507.969 L 579.947 507.969 L 579.947 507.969 L 579.947 507.969 L 579.947 507.969 L 579.947 507.969 L 579.947 507.969 L 579.947 507.969 L 579.947 507.969 L 579.947 507.969 L 579.947 507.969 L 579.947 507.969 L 579.947 507.969 L 579.947 507.969 L 579.947 507.969 L 579.947 507.969 L 579.947 507.969 L 579.947 507.969 L 579.947 507.969 L 579.947 507.969 L 579.947 507.969 L 579.947 507.969 L 579.947 507.969 L 579.947 507.969 L 579.947 507.969 L 579.947 507.969 L 579.947 507.969 L 579.947 507.969 L 579.947 507.969 L 579.947 507.969 L 579.947 507.969 L 579.947 507.969 L 579.947 507.969 L 579.947 507.969 L 579.947 507.969 L 579.947 507.969 L 579.947 507.969 L 579.947 507.969 L 579.947 507.969 L 579.947 507.969 L 579.947 507.969 L 579.947 507.969 L 579.947 507.969 L 579.947 507.969 L 579.947 507.969 L 579.947 507.969 L 579.947 507.969 L 579.947 507.969 L 579.947 507.969 L 579.947 507.969 L 579.947 507.969 L 579.947 507.969 Z  M 276.948 345.351 L 292.027 354.051 C 292.548 354.352 292.548 354.841 292.027 355.141 L 276.995 363.814 C 276.474 364.115 275.628 364.115 275.106 363.814 L 260.027 355.114 C 259.506 354.813 259.506 354.325 260.027 354.024 L 275.058 345.351 C 275.58 345.05 276.426 345.05 276.948 345.351 L 276.948 345.351 L 276.948 345.351 L 276.948 345.351 L 276.948 345.351 L 276.948 345.351 L 276.948 345.351 L 276.948 345.351 L 276.948 345.351 L 276.948 345.351 L 276.948 345.351 L 276.948 345.351 L 276.948 345.351 L 276.948 345.351 L 276.948 345.351 L 276.948 345.351 L 276.948 345.351 L 276.948 345.351 L 276.948 345.351 L 276.948 345.351 L 276.948 345.351 L 276.948 345.351 L 276.948 345.351 L 276.948 345.351 L 276.948 345.351 L 276.948 345.351 L 276.948 345.351 L 276.948 345.351 L 276.948 345.351 L 276.948 345.351 L 276.948 345.351 L 276.948 345.351 L 276.948 345.351 L 276.948 345.351 L 276.948 345.351 L 276.948 345.351 L 276.948 345.351 L 276.948 345.351 L 276.948 345.351 L 276.948 345.351 L 276.948 345.351 L 276.948 345.351 L 276.948 345.351 L 276.948 345.351 L 276.948 345.351 L 276.948 345.351 L 276.948 345.351 L 276.948 345.351 L 276.948 345.351 L 276.948 345.351 L 276.948 345.351 L 276.948 345.351 L 276.948 345.351 L 276.948 345.351 L 276.948 345.351 L 276.948 345.351 L 276.948 345.351 L 276.948 345.351 L 276.948 345.351 L 276.948 345.351 Z  M 298.648 357.872 L 313.727 366.573 C 314.249 366.874 314.249 367.362 313.727 367.663 L 298.696 376.336 C 298.175 376.637 297.328 376.637 296.807 376.336 L 281.728 367.635 C 281.207 367.334 281.207 366.846 281.728 366.545 L 296.759 357.872 C 297.28 357.571 298.127 357.571 298.648 357.872 L 298.648 357.872 L 298.648 357.872 L 298.648 357.872 L 298.648 357.872 L 298.648 357.872 L 298.648 357.872 L 298.648 357.872 L 298.648 357.872 L 298.648 357.872 L 298.648 357.872 L 298.648 357.872 L 298.648 357.872 L 298.648 357.872 L 298.648 357.872 L 298.648 357.872 L 298.648 357.872 L 298.648 357.872 L 298.648 357.872 L 298.648 357.872 L 298.648 357.872 L 298.648 357.872 L 298.648 357.872 L 298.648 357.872 L 298.648 357.872 L 298.648 357.872 L 298.648 357.872 L 298.648 357.872 L 298.648 357.872 L 298.648 357.872 L 298.648 357.872 L 298.648 357.872 L 298.648 357.872 L 298.648 357.872 L 298.648 357.872 L 298.648 357.872 L 298.648 357.872 L 298.648 357.872 L 298.648 357.872 L 298.648 357.872 L 298.648 357.872 L 298.648 357.872 L 298.648 357.872 L 298.648 357.872 L 298.648 357.872 L 298.648 357.872 L 298.648 357.872 L 298.648 357.872 L 298.648 357.872 L 298.648 357.872 L 298.648 357.872 L 298.648 357.872 L 298.648 357.872 L 298.648 357.872 L 298.648 357.872 L 298.648 357.872 L 298.648 357.872 L 298.648 357.872 L 298.648 357.872 Z  M 320.349 370.394 L 335.428 379.094 C 335.949 379.395 335.949 379.883 335.428 380.184 L 320.397 388.857 C 319.876 389.158 319.029 389.158 318.508 388.857 L 303.429 380.157 C 302.907 379.856 302.907 379.367 303.429 379.066 L 318.46 370.394 C 318.981 370.093 319.828 370.093 320.349 370.394 L 320.349 370.394 L 320.349 370.394 L 320.349 370.394 L 320.349 370.394 L 320.349 370.394 L 320.349 370.394 L 320.349 370.394 L 320.349 370.394 L 320.349 370.394 L 320.349 370.394 L 320.349 370.394 L 320.349 370.394 L 320.349 370.394 L 320.349 370.394 L 320.349 370.394 L 320.349 370.394 L 320.349 370.394 L 320.349 370.394 L 320.349 370.394 L 320.349 370.394 L 320.349 370.394 L 320.349 370.394 L 320.349 370.394 L 320.349 370.394 L 320.349 370.394 L 320.349 370.394 L 320.349 370.394 L 320.349 370.394 L 320.349 370.394 L 320.349 370.394 L 320.349 370.394 L 320.349 370.394 L 320.349 370.394 L 320.349 370.394 L 320.349 370.394 L 320.349 370.394 L 320.349 370.394 L 320.349 370.394 L 320.349 370.394 L 320.349 370.394 L 320.349 370.394 L 320.349 370.394 L 320.349 370.394 L 320.349 370.394 L 320.349 370.394 L 320.349 370.394 L 320.349 370.394 L 320.349 370.394 L 320.349 370.394 L 320.349 370.394 L 320.349 370.394 L 320.349 370.394 L 320.349 370.394 L 320.349 370.394 L 320.349 370.394 L 320.349 370.394 L 320.349 370.394 Z  M 342.05 382.915 L 357.129 391.615 C 357.65 391.916 357.65 392.405 357.129 392.706 L 342.098 401.378 C 341.576 401.679 340.73 401.679 340.209 401.378 L 325.13 392.678 C 324.608 392.377 324.608 391.889 325.13 391.588 L 340.161 382.915 C 340.682 382.614 341.528 382.614 342.05 382.915 L 342.05 382.915 L 342.05 382.915 L 342.05 382.915 L 342.05 382.915 L 342.05 382.915 L 342.05 382.915 L 342.05 382.915 L 342.05 382.915 L 342.05 382.915 L 342.05 382.915 L 342.05 382.915 L 342.05 382.915 L 342.05 382.915 L 342.05 382.915 L 342.05 382.915 L 342.05 382.915 L 342.05 382.915 L 342.05 382.915 L 342.05 382.915 L 342.05 382.915 L 342.05 382.915 L 342.05 382.915 L 342.05 382.915 L 342.05 382.915 L 342.05 382.915 L 342.05 382.915 L 342.05 382.915 L 342.05 382.915 L 342.05 382.915 L 342.05 382.915 L 342.05 382.915 L 342.05 382.915 L 342.05 382.915 L 342.05 382.915 L 342.05 382.915 L 342.05 382.915 L 342.05 382.915 L 342.05 382.915 L 342.05 382.915 L 342.05 382.915 L 342.05 382.915 L 342.05 382.915 L 342.05 382.915 L 342.05 382.915 L 342.05 382.915 L 342.05 382.915 L 342.05 382.915 L 342.05 382.915 L 342.05 382.915 L 342.05 382.915 L 342.05 382.915 L 342.05 382.915 L 342.05 382.915 L 342.05 382.915 L 342.05 382.915 L 342.05 382.915 Z  M 363.751 395.436 L 378.83 404.137 C 379.351 404.438 379.351 404.926 378.83 405.227 L 363.799 413.9 C 363.277 414.201 362.431 414.201 361.909 413.9 L 346.83 405.199 C 346.309 404.898 346.309 404.41 346.83 404.109 L 361.861 395.436 C 362.383 395.135 363.229 395.135 363.751 395.436 L 363.751 395.436 L 363.751 395.436 L 363.751 395.436 L 363.751 395.436 L 363.751 395.436 L 363.751 395.436 L 363.751 395.436 L 363.751 395.436 L 363.751 395.436 L 363.751 395.436 L 363.751 395.436 L 363.751 395.436 L 363.751 395.436 L 363.751 395.436 L 363.751 395.436 L 363.751 395.436 L 363.751 395.436 L 363.751 395.436 L 363.751 395.436 L 363.751 395.436 L 363.751 395.436 L 363.751 395.436 L 363.751 395.436 L 363.751 395.436 L 363.751 395.436 L 363.751 395.436 L 363.751 395.436 L 363.751 395.436 L 363.751 395.436 L 363.751 395.436 L 363.751 395.436 L 363.751 395.436 L 363.751 395.436 L 363.751 395.436 L 363.751 395.436 L 363.751 395.436 L 363.751 395.436 L 363.751 395.436 L 363.751 395.436 L 363.751 395.436 L 363.751 395.436 L 363.751 395.436 L 363.751 395.436 L 363.751 395.436 L 363.751 395.436 L 363.751 395.436 L 363.751 395.436 L 363.751 395.436 L 363.751 395.436 L 363.751 395.436 L 363.751 395.436 L 363.751 395.436 L 363.751 395.436 L 363.751 395.436 L 363.751 395.436 Z  M 385.451 407.958 L 400.53 416.658 C 401.052 416.959 401.052 417.447 400.53 417.748 L 385.499 426.421 C 384.978 426.722 384.131 426.722 383.61 426.421 L 368.531 417.721 C 368.01 417.42 368.01 416.931 368.531 416.631 L 383.562 407.958 C 384.084 407.657 384.93 407.657 385.451 407.958 L 385.451 407.958 L 385.451 407.958 L 385.451 407.958 L 385.451 407.958 L 385.451 407.958 L 385.451 407.958 L 385.451 407.958 L 385.451 407.958 L 385.451 407.958 L 385.451 407.958 L 385.451 407.958 L 385.451 407.958 L 385.451 407.958 L 385.451 407.958 L 385.451 407.958 L 385.451 407.958 L 385.451 407.958 L 385.451 407.958 L 385.451 407.958 L 385.451 407.958 L 385.451 407.958 L 385.451 407.958 L 385.451 407.958 L 385.451 407.958 L 385.451 407.958 L 385.451 407.958 L 385.451 407.958 L 385.451 407.958 L 385.451 407.958 L 385.451 407.958 L 385.451 407.958 L 385.451 407.958 L 385.451 407.958 L 385.451 407.958 L 385.451 407.958 L 385.451 407.958 L 385.451 407.958 L 385.451 407.958 L 385.451 407.958 L 385.451 407.958 L 385.451 407.958 L 385.451 407.958 L 385.451 407.958 L 385.451 407.958 L 385.451 407.958 L 385.451 407.958 L 385.451 407.958 L 385.451 407.958 L 385.451 407.958 L 385.451 407.958 L 385.451 407.958 L 385.451 407.958 L 385.451 407.958 L 385.451 407.958 Z  M 407.152 420.479 L 422.231 429.179 C 422.753 429.48 422.753 429.969 422.231 430.27 L 407.2 438.943 C 406.679 439.243 405.832 439.243 405.311 438.943 L 390.232 430.242 C 389.71 429.941 389.71 429.453 390.232 429.152 L 405.263 420.479 C 405.784 420.178 406.631 420.178 407.152 420.479 L 407.152 420.479 L 407.152 420.479 L 407.152 420.479 L 407.152 420.479 L 407.152 420.479 L 407.152 420.479 L 407.152 420.479 L 407.152 420.479 L 407.152 420.479 L 407.152 420.479 L 407.152 420.479 L 407.152 420.479 L 407.152 420.479 L 407.152 420.479 L 407.152 420.479 L 407.152 420.479 L 407.152 420.479 L 407.152 420.479 L 407.152 420.479 L 407.152 420.479 L 407.152 420.479 L 407.152 420.479 L 407.152 420.479 L 407.152 420.479 L 407.152 420.479 L 407.152 420.479 L 407.152 420.479 L 407.152 420.479 L 407.152 420.479 L 407.152 420.479 L 407.152 420.479 L 407.152 420.479 L 407.152 420.479 L 407.152 420.479 L 407.152 420.479 L 407.152 420.479 L 407.152 420.479 L 407.152 420.479 L 407.152 420.479 L 407.152 420.479 L 407.152 420.479 L 407.152 420.479 L 407.152 420.479 L 407.152 420.479 L 407.152 420.479 L 407.152 420.479 L 407.152 420.479 L 407.152 420.479 L 407.152 420.479 L 407.152 420.479 L 407.152 420.479 L 407.152 420.479 L 407.152 420.479 Z  M 428.853 433 L 443.932 441.701 C 444.453 442.002 444.453 442.49 443.932 442.791 L 428.901 451.464 C 428.38 451.765 427.533 451.765 427.012 451.464 L 411.933 442.763 C 411.411 442.462 411.411 441.974 411.933 441.673 L 426.964 433 C 427.485 432.699 428.332 432.699 428.853 433 L 428.853 433 L 428.853 433 L 428.853 433 L 428.853 433 L 428.853 433 L 428.853 433 L 428.853 433 L 428.853 433 L 428.853 433 L 428.853 433 L 428.853 433 L 428.853 433 L 428.853 433 L 428.853 433 L 428.853 433 L 428.853 433 L 428.853 433 L 428.853 433 L 428.853 433 L 428.853 433 L 428.853 433 L 428.853 433 L 428.853 433 L 428.853 433 L 428.853 433 L 428.853 433 L 428.853 433 L 428.853 433 L 428.853 433 L 428.853 433 L 428.853 433 L 428.853 433 L 428.853 433 L 428.853 433 L 428.853 433 L 428.853 433 L 428.853 433 L 428.853 433 L 428.853 433 L 428.853 433 L 428.853 433 L 428.853 433 L 428.853 433 L 428.853 433 L 428.853 433 L 428.853 433 L 428.853 433 L 428.853 433 L 428.853 433 L 428.853 433 L 428.853 433 L 428.853 433 Z  M 450.554 445.522 L 465.633 454.222 C 466.154 454.523 466.154 455.011 465.633 455.312 L 450.602 463.985 C 450.08 464.286 449.234 464.286 448.712 463.985 L 433.633 455.285 C 433.112 454.984 433.112 454.495 433.633 454.195 L 448.664 445.522 C 449.186 445.221 450.032 445.221 450.554 445.522 L 450.554 445.522 L 450.554 445.522 L 450.554 445.522 L 450.554 445.522 L 450.554 445.522 L 450.554 445.522 L 450.554 445.522 L 450.554 445.522 L 450.554 445.522 L 450.554 445.522 L 450.554 445.522 L 450.554 445.522 L 450.554 445.522 L 450.554 445.522 L 450.554 445.522 L 450.554 445.522 L 450.554 445.522 L 450.554 445.522 L 450.554 445.522 L 450.554 445.522 L 450.554 445.522 L 450.554 445.522 L 450.554 445.522 L 450.554 445.522 L 450.554 445.522 L 450.554 445.522 L 450.554 445.522 L 450.554 445.522 L 450.554 445.522 L 450.554 445.522 L 450.554 445.522 L 450.554 445.522 L 450.554 445.522 L 450.554 445.522 L 450.554 445.522 L 450.554 445.522 L 450.554 445.522 L 450.554 445.522 L 450.554 445.522 L 450.554 445.522 L 450.554 445.522 L 450.554 445.522 L 450.554 445.522 L 450.554 445.522 L 450.554 445.522 L 450.554 445.522 L 450.554 445.522 L 450.554 445.522 L 450.554 445.522 L 450.554 445.522 L 450.554 445.522 Z  M 472.255 458.043 L 487.334 466.744 C 487.855 467.044 487.855 467.533 487.334 467.834 L 472.302 476.507 C 471.781 476.807 470.935 476.807 470.413 476.507 L 455.334 467.806 C 454.813 467.505 454.813 467.017 455.334 466.716 L 470.365 458.043 C 470.887 457.742 471.733 457.742 472.255 458.043 L 472.255 458.043 L 472.255 458.043 L 472.255 458.043 L 472.255 458.043 L 472.255 458.043 L 472.255 458.043 L 472.255 458.043 L 472.255 458.043 L 472.255 458.043 L 472.255 458.043 L 472.255 458.043 L 472.255 458.043 L 472.255 458.043 L 472.255 458.043 L 472.255 458.043 L 472.255 458.043 L 472.255 458.043 L 472.255 458.043 L 472.255 458.043 L 472.255 458.043 L 472.255 458.043 L 472.255 458.043 L 472.255 458.043 L 472.255 458.043 L 472.255 458.043 L 472.255 458.043 L 472.255 458.043 L 472.255 458.043 L 472.255 458.043 L 472.255 458.043 L 472.255 458.043 L 472.255 458.043 L 472.255 458.043 L 472.255 458.043 L 472.255 458.043 L 472.255 458.043 L 472.255 458.043 L 472.255 458.043 L 472.255 458.043 L 472.255 458.043 L 472.255 458.043 L 472.255 458.043 L 472.255 458.043 L 472.255 458.043 L 472.255 458.043 L 472.255 458.043 L 472.255 458.043 L 472.255 458.043 L 472.255 458.043 L 472.255 458.043 Z  M 493.955 470.564 L 509.034 479.265 C 509.556 479.566 509.556 480.054 509.034 480.355 L 494.003 489.028 C 493.482 489.329 492.635 489.329 492.114 489.028 L 477.035 480.327 C 476.514 480.027 476.514 479.538 477.035 479.237 L 492.066 470.564 C 492.587 470.263 493.434 470.263 493.955 470.564 L 493.955 470.564 L 493.955 470.564 L 493.955 470.564 L 493.955 470.564 L 493.955 470.564 L 493.955 470.564 L 493.955 470.564 L 493.955 470.564 L 493.955 470.564 L 493.955 470.564 L 493.955 470.564 L 493.955 470.564 L 493.955 470.564 L 493.955 470.564 L 493.955 470.564 L 493.955 470.564 L 493.955 470.564 L 493.955 470.564 L 493.955 470.564 L 493.955 470.564 L 493.955 470.564 L 493.955 470.564 L 493.955 470.564 L 493.955 470.564 L 493.955 470.564 L 493.955 470.564 L 493.955 470.564 L 493.955 470.564 L 493.955 470.564 L 493.955 470.564 L 493.955 470.564 L 493.955 470.564 L 493.955 470.564 L 493.955 470.564 L 493.955 470.564 L 493.955 470.564 L 493.955 470.564 L 493.955 470.564 L 493.955 470.564 L 493.955 470.564 L 493.955 470.564 L 493.955 470.564 L 493.955 470.564 L 493.955 470.564 L 493.955 470.564 L 493.955 470.564 L 493.955 470.564 L 493.955 470.564 L 493.955 470.564 Z  M 515.656 483.086 L 530.735 491.786 C 531.256 492.087 531.256 492.576 530.735 492.876 L 515.704 501.549 C 515.183 501.85 514.336 501.85 513.815 501.549 L 498.736 492.849 C 498.214 492.548 498.214 492.059 498.736 491.759 L 513.767 483.086 C 514.288 482.785 515.135 482.785 515.656 483.086 L 515.656 483.086 L 515.656 483.086 L 515.656 483.086 L 515.656 483.086 L 515.656 483.086 L 515.656 483.086 L 515.656 483.086 L 515.656 483.086 L 515.656 483.086 L 515.656 483.086 L 515.656 483.086 L 515.656 483.086 L 515.656 483.086 L 515.656 483.086 L 515.656 483.086 L 515.656 483.086 L 515.656 483.086 L 515.656 483.086 L 515.656 483.086 L 515.656 483.086 L 515.656 483.086 L 515.656 483.086 L 515.656 483.086 L 515.656 483.086 L 515.656 483.086 L 515.656 483.086 L 515.656 483.086 L 515.656 483.086 L 515.656 483.086 L 515.656 483.086 L 515.656 483.086 L 515.656 483.086 L 515.656 483.086 L 515.656 483.086 L 515.656 483.086 L 515.656 483.086 L 515.656 483.086 L 515.656 483.086 L 515.656 483.086 L 515.656 483.086 L 515.656 483.086 L 515.656 483.086 L 515.656 483.086 L 515.656 483.086 L 515.656 483.086 L 515.656 483.086 L 515.656 483.086 L 515.656 483.086 Z  M 537.357 495.607 L 552.436 504.308 C 552.957 504.608 552.957 505.097 552.436 505.398 L 537.405 514.071 C 536.883 514.371 536.037 514.371 535.516 514.071 L 520.437 505.37 C 519.915 505.069 519.915 504.581 520.437 504.28 L 535.468 495.607 C 535.989 495.306 536.836 495.306 537.357 495.607 L 537.357 495.607 L 537.357 495.607 L 537.357 495.607 L 537.357 495.607 L 537.357 495.607 L 537.357 495.607 L 537.357 495.607 L 537.357 495.607 L 537.357 495.607 L 537.357 495.607 L 537.357 495.607 L 537.357 495.607 L 537.357 495.607 L 537.357 495.607 L 537.357 495.607 L 537.357 495.607 L 537.357 495.607 L 537.357 495.607 L 537.357 495.607 L 537.357 495.607 L 537.357 495.607 L 537.357 495.607 L 537.357 495.607 L 537.357 495.607 L 537.357 495.607 L 537.357 495.607 L 537.357 495.607 L 537.357 495.607 L 537.357 495.607 L 537.357 495.607 L 537.357 495.607 L 537.357 495.607 L 537.357 495.607 L 537.357 495.607 L 537.357 495.607 L 537.357 495.607 L 537.357 495.607 L 537.357 495.607 L 537.357 495.607 L 537.357 495.607 L 537.357 495.607 L 537.357 495.607 L 537.357 495.607 L 537.357 495.607 L 537.357 495.607 L 537.357 495.607 L 537.357 495.607 Z  M 559.352 508.298 L 586.079 523.72 C 586.763 524.114 586.763 524.755 586.079 525.15 L 571.637 533.483 C 570.953 533.877 569.842 533.877 569.158 533.483 L 542.432 518.061 C 541.748 517.667 541.748 517.026 542.432 516.631 L 556.874 508.298 C 557.558 507.904 558.668 507.904 559.352 508.298 L 559.352 508.298 L 559.352 508.298 L 559.352 508.298 L 559.352 508.298 L 559.352 508.298 L 559.352 508.298 L 559.352 508.298 L 559.352 508.298 L 559.352 508.298 L 559.352 508.298 L 559.352 508.298 L 559.352 508.298 L 559.352 508.298 L 559.352 508.298 L 559.352 508.298 L 559.352 508.298 L 559.352 508.298 L 559.352 508.298 L 559.352 508.298 L 559.352 508.298 L 559.352 508.298 L 559.352 508.298 L 559.352 508.298 L 559.352 508.298 L 559.352 508.298 L 559.352 508.298 L 559.352 508.298 L 559.352 508.298 L 559.352 508.298 L 559.352 508.298 L 559.352 508.298 L 559.352 508.298 L 559.352 508.298 L 559.352 508.298 L 559.352 508.298 L 559.352 508.298 L 559.352 508.298 L 559.352 508.298 L 559.352 508.298 L 559.352 508.298 L 559.352 508.298 L 559.352 508.298 L 559.352 508.298 L 559.352 508.298 L 559.352 508.298 L 559.352 508.298 Z  M 191.772 394.497 L 206.851 403.198 C 207.373 403.498 207.373 403.987 206.851 404.288 L 191.82 412.961 C 191.299 413.261 190.452 413.261 189.931 412.961 L 174.852 404.26 C 174.331 403.959 174.331 403.471 174.852 403.17 L 189.883 394.497 C 190.404 394.196 191.251 394.196 191.772 394.497 L 191.772 394.497 L 191.772 394.497 L 191.772 394.497 L 191.772 394.497 L 191.772 394.497 L 191.772 394.497 L 191.772 394.497 L 191.772 394.497 L 191.772 394.497 L 191.772 394.497 L 191.772 394.497 L 191.772 394.497 L 191.772 394.497 L 191.772 394.497 L 191.772 394.497 L 191.772 394.497 L 191.772 394.497 L 191.772 394.497 L 191.772 394.497 L 191.772 394.497 L 191.772 394.497 L 191.772 394.497 L 191.772 394.497 L 191.772 394.497 L 191.772 394.497 L 191.772 394.497 L 191.772 394.497 L 191.772 394.497 L 191.772 394.497 L 191.772 394.497 L 191.772 394.497 L 191.772 394.497 L 191.772 394.497 L 191.772 394.497 L 191.772 394.497 L 191.772 394.497 L 191.772 394.497 L 191.772 394.497 L 191.772 394.497 L 191.772 394.497 L 191.772 394.497 L 191.772 394.497 L 191.772 394.497 L 191.772 394.497 L 191.772 394.497 Z  M 213.473 407.018 L 228.552 415.719 C 229.073 416.02 229.073 416.508 228.552 416.809 L 213.521 425.482 C 213 425.783 212.153 425.783 211.632 425.482 L 196.553 416.781 C 196.031 416.481 196.031 415.992 196.553 415.691 L 211.584 407.018 C 212.105 406.717 212.952 406.717 213.473 407.018 L 213.473 407.018 L 213.473 407.018 L 213.473 407.018 L 213.473 407.018 L 213.473 407.018 L 213.473 407.018 L 213.473 407.018 L 213.473 407.018 L 213.473 407.018 L 213.473 407.018 L 213.473 407.018 L 213.473 407.018 L 213.473 407.018 L 213.473 407.018 L 213.473 407.018 L 213.473 407.018 L 213.473 407.018 L 213.473 407.018 L 213.473 407.018 L 213.473 407.018 L 213.473 407.018 L 213.473 407.018 L 213.473 407.018 L 213.473 407.018 L 213.473 407.018 L 213.473 407.018 L 213.473 407.018 L 213.473 407.018 L 213.473 407.018 L 213.473 407.018 L 213.473 407.018 L 213.473 407.018 L 213.473 407.018 L 213.473 407.018 L 213.473 407.018 L 213.473 407.018 L 213.473 407.018 L 213.473 407.018 L 213.473 407.018 L 213.473 407.018 L 213.473 407.018 L 213.473 407.018 L 213.473 407.018 L 213.473 407.018 Z  M 235.174 419.54 L 250.253 428.24 C 250.774 428.541 250.774 429.03 250.253 429.33 L 235.222 438.003 C 234.7 438.304 233.854 438.304 233.332 438.003 L 218.253 429.303 C 217.732 429.002 217.732 428.513 218.253 428.213 L 233.285 419.54 C 233.806 419.239 234.652 419.239 235.174 419.54 L 235.174 419.54 L 235.174 419.54 L 235.174 419.54 L 235.174 419.54 L 235.174 419.54 L 235.174 419.54 L 235.174 419.54 L 235.174 419.54 L 235.174 419.54 L 235.174 419.54 L 235.174 419.54 L 235.174 419.54 L 235.174 419.54 L 235.174 419.54 L 235.174 419.54 L 235.174 419.54 L 235.174 419.54 L 235.174 419.54 L 235.174 419.54 L 235.174 419.54 L 235.174 419.54 L 235.174 419.54 L 235.174 419.54 L 235.174 419.54 L 235.174 419.54 L 235.174 419.54 L 235.174 419.54 L 235.174 419.54 L 235.174 419.54 L 235.174 419.54 L 235.174 419.54 L 235.174 419.54 L 235.174 419.54 L 235.174 419.54 L 235.174 419.54 L 235.174 419.54 L 235.174 419.54 L 235.174 419.54 L 235.174 419.54 L 235.174 419.54 L 235.174 419.54 L 235.174 419.54 L 235.174 419.54 Z  M 257.176 432.235 L 284.215 447.836 C 284.903 448.233 284.903 448.878 284.215 449.275 L 269.787 457.599 C 269.099 457.996 267.983 457.996 267.295 457.599 L 240.256 441.998 C 239.568 441.601 239.568 440.957 240.256 440.56 L 254.684 432.235 C 255.372 431.838 256.488 431.838 257.176 432.235 L 257.176 432.235 L 257.176 432.235 L 257.176 432.235 L 257.176 432.235 L 257.176 432.235 L 257.176 432.235 L 257.176 432.235 L 257.176 432.235 L 257.176 432.235 L 257.176 432.235 L 257.176 432.235 L 257.176 432.235 L 257.176 432.235 L 257.176 432.235 L 257.176 432.235 L 257.176 432.235 L 257.176 432.235 L 257.176 432.235 L 257.176 432.235 L 257.176 432.235 L 257.176 432.235 L 257.176 432.235 L 257.176 432.235 L 257.176 432.235 L 257.176 432.235 L 257.176 432.235 L 257.176 432.235 L 257.176 432.235 L 257.176 432.235 L 257.176 432.235 L 257.176 432.235 L 257.176 432.235 L 257.176 432.235 L 257.176 432.235 L 257.176 432.235 L 257.176 432.235 L 257.176 432.235 L 257.176 432.235 L 257.176 432.235 L 257.176 432.235 L 257.176 432.235 L 257.176 432.235 Z  M 292.444 452.584 L 384.209 505.533 C 385.451 506.249 385.451 507.413 384.209 508.129 L 371.789 515.296 C 370.547 516.012 368.53 516.012 367.289 515.296 L 275.523 462.347 C 274.282 461.631 274.282 460.467 275.523 459.751 L 287.944 452.584 C 289.186 451.868 291.202 451.868 292.444 452.584 L 292.444 452.584 L 292.444 452.584 L 292.444 452.584 L 292.444 452.584 L 292.444 452.584 L 292.444 452.584 L 292.444 452.584 L 292.444 452.584 L 292.444 452.584 L 292.444 452.584 L 292.444 452.584 L 292.444 452.584 L 292.444 452.584 L 292.444 452.584 L 292.444 452.584 L 292.444 452.584 L 292.444 452.584 L 292.444 452.584 L 292.444 452.584 L 292.444 452.584 L 292.444 452.584 L 292.444 452.584 L 292.444 452.584 L 292.444 452.584 L 292.444 452.584 L 292.444 452.584 L 292.444 452.584 L 292.444 452.584 L 292.444 452.584 L 292.444 452.584 L 292.444 452.584 L 292.444 452.584 L 292.444 452.584 L 292.444 452.584 L 292.444 452.584 L 292.444 452.584 L 292.444 452.584 L 292.444 452.584 L 292.444 452.584 L 292.444 452.584 L 292.444 452.584 Z  M 392.543 510.341 L 423.475 528.189 C 424.208 528.612 424.208 529.3 423.475 529.723 L 409.212 537.952 C 408.479 538.375 407.288 538.375 406.554 537.952 L 375.622 520.105 C 374.889 519.681 374.889 518.994 375.622 518.571 L 389.885 510.341 C 390.618 509.918 391.809 509.918 392.543 510.341 L 392.543 510.341 L 392.543 510.341 L 392.543 510.341 L 392.543 510.341 L 392.543 510.341 L 392.543 510.341 L 392.543 510.341 L 392.543 510.341 L 392.543 510.341 L 392.543 510.341 L 392.543 510.341 L 392.543 510.341 L 392.543 510.341 L 392.543 510.341 L 392.543 510.341 L 392.543 510.341 L 392.543 510.341 L 392.543 510.341 L 392.543 510.341 L 392.543 510.341 L 392.543 510.341 L 392.543 510.341 L 392.543 510.341 L 392.543 510.341 L 392.543 510.341 L 392.543 510.341 L 392.543 510.341 L 392.543 510.341 L 392.543 510.341 L 392.543 510.341 L 392.543 510.341 L 392.543 510.341 L 392.543 510.341 L 392.543 510.341 L 392.543 510.341 L 392.543 510.341 L 392.543 510.341 L 392.543 510.341 L 392.543 510.341 L 392.543 510.341 Z  M 430.481 532.232 L 445.56 540.932 C 446.081 541.233 446.081 541.722 445.56 542.022 L 430.529 550.695 C 430.007 550.996 429.161 550.996 428.639 550.695 L 413.56 541.995 C 413.039 541.694 413.039 541.206 413.56 540.905 L 428.592 532.232 C 429.113 531.931 429.959 531.931 430.481 532.232 L 430.481 532.232 L 430.481 532.232 L 430.481 532.232 L 430.481 532.232 L 430.481 532.232 L 430.481 532.232 L 430.481 532.232 L 430.481 532.232 L 430.481 532.232 L 430.481 532.232 L 430.481 532.232 L 430.481 532.232 L 430.481 532.232 L 430.481 532.232 L 430.481 532.232 L 430.481 532.232 L 430.481 532.232 L 430.481 532.232 L 430.481 532.232 L 430.481 532.232 L 430.481 532.232 L 430.481 532.232 L 430.481 532.232 L 430.481 532.232 L 430.481 532.232 L 430.481 532.232 L 430.481 532.232 L 430.481 532.232 L 430.481 532.232 L 430.481 532.232 L 430.481 532.232 L 430.481 532.232 L 430.481 532.232 L 430.481 532.232 L 430.481 532.232 L 430.481 532.232 L 430.481 532.232 L 430.481 532.232 L 430.481 532.232 Z  M 235.558 369.788 L 271.375 390.454 C 272.162 390.908 272.162 391.646 271.375 392.1 L 257.307 400.217 C 256.52 400.672 255.242 400.672 254.455 400.217 L 218.638 379.551 C 217.851 379.097 217.851 378.359 218.638 377.905 L 232.706 369.788 C 233.493 369.334 234.771 369.334 235.558 369.788 L 235.558 369.788 L 235.558 369.788 L 235.558 369.788 L 235.558 369.788 L 235.558 369.788 L 235.558 369.788 L 235.558 369.788 L 235.558 369.788 L 235.558 369.788 L 235.558 369.788 L 235.558 369.788 L 235.558 369.788 L 235.558 369.788 L 235.558 369.788 L 235.558 369.788 L 235.558 369.788 L 235.558 369.788 L 235.558 369.788 L 235.558 369.788 L 235.558 369.788 L 235.558 369.788 L 235.558 369.788 L 235.558 369.788 L 235.558 369.788 L 235.558 369.788 L 235.558 369.788 L 235.558 369.788 L 235.558 369.788 L 235.558 369.788 L 235.558 369.788 L 235.558 369.788 L 235.558 369.788 L 235.558 369.788 L 235.558 369.788 L 235.558 369.788 L 235.558 369.788 L 235.558 369.788 L 235.558 369.788 Z  M 212.997 383.066 L 261.579 411.098 C 262.491 411.624 262.491 412.478 261.579 413.004 L 247.962 420.861 C 247.051 421.387 245.57 421.387 244.659 420.861 L 196.077 392.829 C 195.165 392.303 195.165 391.449 196.077 390.923 L 209.693 383.066 C 210.605 382.54 212.085 382.54 212.997 383.066 L 212.997 383.066 L 212.997 383.066 L 212.997 383.066 L 212.997 383.066 L 212.997 383.066 L 212.997 383.066 L 212.997 383.066 L 212.997 383.066 L 212.997 383.066 L 212.997 383.066 L 212.997 383.066 L 212.997 383.066 L 212.997 383.066 L 212.997 383.066 L 212.997 383.066 L 212.997 383.066 L 212.997 383.066 L 212.997 383.066 L 212.997 383.066 L 212.997 383.066 L 212.997 383.066 L 212.997 383.066 L 212.997 383.066 L 212.997 383.066 L 212.997 383.066 L 212.997 383.066 L 212.997 383.066 L 212.997 383.066 L 212.997 383.066 L 212.997 383.066 L 212.997 383.066 L 212.997 383.066 L 212.997 383.066 L 212.997 383.066 L 212.997 383.066 L 212.997 383.066 L 212.997 383.066 Z  M 278.478 394.553 L 293.557 403.253 C 294.079 403.554 294.079 404.043 293.557 404.344 L 278.526 413.017 C 278.005 413.317 277.158 413.317 276.637 413.017 L 261.558 404.316 C 261.037 404.015 261.037 403.527 261.558 403.226 L 276.589 394.553 C 277.111 394.252 277.957 394.252 278.478 394.553 L 278.478 394.553 L 278.478 394.553 L 278.478 394.553 L 278.478 394.553 L 278.478 394.553 L 278.478 394.553 L 278.478 394.553 L 278.478 394.553 L 278.478 394.553 L 278.478 394.553 L 278.478 394.553 L 278.478 394.553 L 278.478 394.553 L 278.478 394.553 L 278.478 394.553 L 278.478 394.553 L 278.478 394.553 L 278.478 394.553 L 278.478 394.553 L 278.478 394.553 L 278.478 394.553 L 278.478 394.553 L 278.478 394.553 L 278.478 394.553 L 278.478 394.553 L 278.478 394.553 L 278.478 394.553 L 278.478 394.553 L 278.478 394.553 L 278.478 394.553 L 278.478 394.553 L 278.478 394.553 L 278.478 394.553 L 278.478 394.553 L 278.478 394.553 L 278.478 394.553 Z  M 300.179 407.074 L 315.258 415.775 C 315.78 416.076 315.78 416.564 315.258 416.865 L 300.227 425.538 C 299.706 425.839 298.859 425.839 298.338 425.538 L 283.259 416.837 C 282.737 416.536 282.737 416.048 283.259 415.747 L 298.29 407.074 C 298.811 406.773 299.658 406.773 300.179 407.074 L 300.179 407.074 L 300.179 407.074 L 300.179 407.074 L 300.179 407.074 L 300.179 407.074 L 300.179 407.074 L 300.179 407.074 L 300.179 407.074 L 300.179 407.074 L 300.179 407.074 L 300.179 407.074 L 300.179 407.074 L 300.179 407.074 L 300.179 407.074 L 300.179 407.074 L 300.179 407.074 L 300.179 407.074 L 300.179 407.074 L 300.179 407.074 L 300.179 407.074 L 300.179 407.074 L 300.179 407.074 L 300.179 407.074 L 300.179 407.074 L 300.179 407.074 L 300.179 407.074 L 300.179 407.074 L 300.179 407.074 L 300.179 407.074 L 300.179 407.074 L 300.179 407.074 L 300.179 407.074 L 300.179 407.074 L 300.179 407.074 L 300.179 407.074 Z  M 321.88 419.596 L 336.959 428.296 C 337.48 428.597 337.48 429.085 336.959 429.386 L 321.928 438.059 C 321.407 438.36 320.56 438.36 320.039 438.059 L 304.96 429.359 C 304.438 429.058 304.438 428.569 304.96 428.269 L 319.991 419.596 C 320.512 419.295 321.359 419.295 321.88 419.596 L 321.88 419.596 L 321.88 419.596 L 321.88 419.596 L 321.88 419.596 L 321.88 419.596 L 321.88 419.596 L 321.88 419.596 L 321.88 419.596 L 321.88 419.596 L 321.88 419.596 L 321.88 419.596 L 321.88 419.596 L 321.88 419.596 L 321.88 419.596 L 321.88 419.596 L 321.88 419.596 L 321.88 419.596 L 321.88 419.596 L 321.88 419.596 L 321.88 419.596 L 321.88 419.596 L 321.88 419.596 L 321.88 419.596 L 321.88 419.596 L 321.88 419.596 L 321.88 419.596 L 321.88 419.596 L 321.88 419.596 L 321.88 419.596 L 321.88 419.596 L 321.88 419.596 L 321.88 419.596 L 321.88 419.596 L 321.88 419.596 Z  M 343.581 432.117 L 358.66 440.818 C 359.181 441.118 359.181 441.607 358.66 441.908 L 343.629 450.581 C 343.107 450.881 342.261 450.881 341.739 450.581 L 326.66 441.88 C 326.139 441.579 326.139 441.091 326.66 440.79 L 341.691 432.117 C 342.213 431.816 343.059 431.816 343.581 432.117 L 343.581 432.117 L 343.581 432.117 L 343.581 432.117 L 343.581 432.117 L 343.581 432.117 L 343.581 432.117 L 343.581 432.117 L 343.581 432.117 L 343.581 432.117 L 343.581 432.117 L 343.581 432.117 L 343.581 432.117 L 343.581 432.117 L 343.581 432.117 L 343.581 432.117 L 343.581 432.117 L 343.581 432.117 L 343.581 432.117 L 343.581 432.117 L 343.581 432.117 L 343.581 432.117 L 343.581 432.117 L 343.581 432.117 L 343.581 432.117 L 343.581 432.117 L 343.581 432.117 L 343.581 432.117 L 343.581 432.117 L 343.581 432.117 L 343.581 432.117 L 343.581 432.117 L 343.581 432.117 L 343.581 432.117 Z  M 365.282 444.638 L 380.361 453.339 C 380.882 453.64 380.882 454.128 380.361 454.429 L 365.329 463.102 C 364.808 463.403 363.962 463.403 363.44 463.102 L 348.361 454.401 C 347.84 454.101 347.84 453.612 348.361 453.311 L 363.392 444.638 C 363.914 444.337 364.76 444.337 365.282 444.638 L 365.282 444.638 L 365.282 444.638 L 365.282 444.638 L 365.282 444.638 L 365.282 444.638 L 365.282 444.638 L 365.282 444.638 L 365.282 444.638 L 365.282 444.638 L 365.282 444.638 L 365.282 444.638 L 365.282 444.638 L 365.282 444.638 L 365.282 444.638 L 365.282 444.638 L 365.282 444.638 L 365.282 444.638 L 365.282 444.638 L 365.282 444.638 L 365.282 444.638 L 365.282 444.638 L 365.282 444.638 L 365.282 444.638 L 365.282 444.638 L 365.282 444.638 L 365.282 444.638 L 365.282 444.638 L 365.282 444.638 L 365.282 444.638 L 365.282 444.638 L 365.282 444.638 L 365.282 444.638 Z  M 386.982 457.16 L 402.061 465.86 C 402.583 466.161 402.583 466.65 402.061 466.95 L 387.03 475.623 C 386.509 475.924 385.662 475.924 385.141 475.623 L 370.062 466.923 C 369.541 466.622 369.541 466.133 370.062 465.833 L 385.093 457.16 C 385.614 456.859 386.461 456.859 386.982 457.16 L 386.982 457.16 L 386.982 457.16 L 386.982 457.16 L 386.982 457.16 L 386.982 457.16 L 386.982 457.16 L 386.982 457.16 L 386.982 457.16 L 386.982 457.16 L 386.982 457.16 L 386.982 457.16 L 386.982 457.16 L 386.982 457.16 L 386.982 457.16 L 386.982 457.16 L 386.982 457.16 L 386.982 457.16 L 386.982 457.16 L 386.982 457.16 L 386.982 457.16 L 386.982 457.16 L 386.982 457.16 L 386.982 457.16 L 386.982 457.16 L 386.982 457.16 L 386.982 457.16 L 386.982 457.16 L 386.982 457.16 L 386.982 457.16 L 386.982 457.16 L 386.982 457.16 Z  M 408.683 469.681 L 423.762 478.382 C 424.283 478.682 424.283 479.171 423.762 479.472 L 408.731 488.145 C 408.21 488.445 407.363 488.445 406.842 488.145 L 391.763 479.444 C 391.241 479.143 391.241 478.655 391.763 478.354 L 406.794 469.681 C 407.315 469.38 408.162 469.38 408.683 469.681 L 408.683 469.681 L 408.683 469.681 L 408.683 469.681 L 408.683 469.681 L 408.683 469.681 L 408.683 469.681 L 408.683 469.681 L 408.683 469.681 L 408.683 469.681 L 408.683 469.681 L 408.683 469.681 L 408.683 469.681 L 408.683 469.681 L 408.683 469.681 L 408.683 469.681 L 408.683 469.681 L 408.683 469.681 L 408.683 469.681 L 408.683 469.681 L 408.683 469.681 L 408.683 469.681 L 408.683 469.681 L 408.683 469.681 L 408.683 469.681 L 408.683 469.681 L 408.683 469.681 L 408.683 469.681 L 408.683 469.681 L 408.683 469.681 L 408.683 469.681 Z  M 430.384 482.202 L 445.463 490.903 C 445.984 491.204 445.984 491.692 445.463 491.993 L 430.432 500.666 C 429.91 500.967 429.064 500.967 428.543 500.666 L 413.464 491.965 C 412.942 491.665 412.942 491.176 413.464 490.875 L 428.495 482.202 C 429.016 481.902 429.863 481.902 430.384 482.202 L 430.384 482.202 L 430.384 482.202 L 430.384 482.202 L 430.384 482.202 L 430.384 482.202 L 430.384 482.202 L 430.384 482.202 L 430.384 482.202 L 430.384 482.202 L 430.384 482.202 L 430.384 482.202 L 430.384 482.202 L 430.384 482.202 L 430.384 482.202 L 430.384 482.202 L 430.384 482.202 L 430.384 482.202 L 430.384 482.202 L 430.384 482.202 L 430.384 482.202 L 430.384 482.202 L 430.384 482.202 L 430.384 482.202 L 430.384 482.202 L 430.384 482.202 L 430.384 482.202 L 430.384 482.202 L 430.384 482.202 L 430.384 482.202 Z  M 452.085 494.724 L 467.164 503.424 C 467.685 503.725 467.685 504.214 467.164 504.514 L 452.133 513.187 C 451.611 513.488 450.765 513.488 450.243 513.187 L 435.164 504.487 C 434.643 504.186 434.643 503.697 435.164 503.397 L 450.195 494.724 C 450.717 494.423 451.563 494.423 452.085 494.724 L 452.085 494.724 L 452.085 494.724 L 452.085 494.724 L 452.085 494.724 L 452.085 494.724 L 452.085 494.724 L 452.085 494.724 L 452.085 494.724 L 452.085 494.724 L 452.085 494.724 L 452.085 494.724 L 452.085 494.724 L 452.085 494.724 L 452.085 494.724 L 452.085 494.724 L 452.085 494.724 L 452.085 494.724 L 452.085 494.724 L 452.085 494.724 L 452.085 494.724 L 452.085 494.724 L 452.085 494.724 L 452.085 494.724 L 452.085 494.724 L 452.085 494.724 L 452.085 494.724 L 452.085 494.724 L 452.085 494.724 Z  M 473.785 507.245 L 488.864 515.946 C 489.386 516.246 489.386 516.735 488.864 517.036 L 473.833 525.709 C 473.312 526.009 472.465 526.009 471.944 525.709 L 456.865 517.008 C 456.344 516.707 456.344 516.219 456.865 515.918 L 471.896 507.245 C 472.418 506.944 473.264 506.944 473.785 507.245 L 473.785 507.245 L 473.785 507.245 L 473.785 507.245 L 473.785 507.245 L 473.785 507.245 L 473.785 507.245 L 473.785 507.245 L 473.785 507.245 L 473.785 507.245 L 473.785 507.245 L 473.785 507.245 L 473.785 507.245 L 473.785 507.245 L 473.785 507.245 L 473.785 507.245 L 473.785 507.245 L 473.785 507.245 L 473.785 507.245 L 473.785 507.245 L 473.785 507.245 L 473.785 507.245 L 473.785 507.245 L 473.785 507.245 L 473.785 507.245 L 473.785 507.245 L 473.785 507.245 L 473.785 507.245 Z  M 495.486 519.766 L 510.565 528.467 C 511.087 528.768 511.087 529.256 510.565 529.557 L 495.534 538.23 C 495.013 538.531 494.166 538.531 493.645 538.23 L 478.566 529.529 C 478.045 529.229 478.045 528.74 478.566 528.439 L 493.597 519.766 C 494.118 519.466 494.965 519.466 495.486 519.766 L 495.486 519.766 L 495.486 519.766 L 495.486 519.766 L 495.486 519.766 L 495.486 519.766 L 495.486 519.766 L 495.486 519.766 L 495.486 519.766 L 495.486 519.766 L 495.486 519.766 L 495.486 519.766 L 495.486 519.766 L 495.486 519.766 L 495.486 519.766 L 495.486 519.766 L 495.486 519.766 L 495.486 519.766 L 495.486 519.766 L 495.486 519.766 L 495.486 519.766 L 495.486 519.766 L 495.486 519.766 L 495.486 519.766 L 495.486 519.766 L 495.486 519.766 L 495.486 519.766 Z  M 517.482 532.458 L 544.208 547.879 C 544.892 548.274 544.892 548.914 544.208 549.309 L 529.766 557.642 C 529.082 558.037 527.972 558.037 527.288 557.642 L 500.561 542.221 C 499.877 541.826 499.877 541.185 500.561 540.791 L 515.003 532.458 C 515.687 532.063 516.798 532.063 517.482 532.458 L 517.482 532.458 L 517.482 532.458 L 517.482 532.458 L 517.482 532.458 L 517.482 532.458 L 517.482 532.458 L 517.482 532.458 L 517.482 532.458 L 517.482 532.458 L 517.482 532.458 L 517.482 532.458 L 517.482 532.458 L 517.482 532.458 L 517.482 532.458 L 517.482 532.458 L 517.482 532.458 L 517.482 532.458 L 517.482 532.458 L 517.482 532.458 L 517.482 532.458 L 517.482 532.458 L 517.482 532.458 L 517.482 532.458 L 517.482 532.458 L 517.482 532.458 Z  M 268.908 415.327 L 283.987 424.028 C 284.508 424.328 284.508 424.817 283.987 425.118 L 268.956 433.791 C 268.434 434.092 267.588 434.092 267.067 433.791 L 251.988 425.09 C 251.466 424.789 251.466 424.301 251.988 424 L 267.019 415.327 C 267.54 415.026 268.387 415.026 268.908 415.327 L 268.908 415.327 L 268.908 415.327 L 268.908 415.327 L 268.908 415.327 L 268.908 415.327 L 268.908 415.327 L 268.908 415.327 L 268.908 415.327 L 268.908 415.327 L 268.908 415.327 L 268.908 415.327 L 268.908 415.327 L 268.908 415.327 L 268.908 415.327 L 268.908 415.327 L 268.908 415.327 L 268.908 415.327 L 268.908 415.327 L 268.908 415.327 L 268.908 415.327 L 268.908 415.327 L 268.908 415.327 L 268.908 415.327 L 268.908 415.327 Z  M 289.955 427.471 L 305.034 436.172 C 305.555 436.473 305.555 436.961 305.034 437.262 L 290.003 445.935 C 289.482 446.236 288.635 446.236 288.114 445.935 L 273.035 437.234 C 272.513 436.934 272.513 436.445 273.035 436.144 L 288.066 427.471 C 288.587 427.17 289.434 427.17 289.955 427.471 L 289.955 427.471 L 289.955 427.471 L 289.955 427.471 L 289.955 427.471 L 289.955 427.471 L 289.955 427.471 L 289.955 427.471 L 289.955 427.471 L 289.955 427.471 L 289.955 427.471 L 289.955 427.471 L 289.955 427.471 L 289.955 427.471 L 289.955 427.471 L 289.955 427.471 L 289.955 427.471 L 289.955 427.471 L 289.955 427.471 L 289.955 427.471 L 289.955 427.471 L 289.955 427.471 L 289.955 427.471 L 289.955 427.471 Z  M 312.472 440.463 L 327.551 449.164 C 328.072 449.465 328.072 449.953 327.551 450.254 L 312.52 458.927 C 311.998 459.228 311.152 459.228 310.63 458.927 L 295.551 450.226 C 295.03 449.926 295.03 449.437 295.551 449.136 L 310.582 440.463 C 311.104 440.163 311.95 440.163 312.472 440.463 L 312.472 440.463 L 312.472 440.463 L 312.472 440.463 L 312.472 440.463 L 312.472 440.463 L 312.472 440.463 L 312.472 440.463 L 312.472 440.463 L 312.472 440.463 L 312.472 440.463 L 312.472 440.463 L 312.472 440.463 L 312.472 440.463 L 312.472 440.463 L 312.472 440.463 L 312.472 440.463 L 312.472 440.463 L 312.472 440.463 L 312.472 440.463 L 312.472 440.463 L 312.472 440.463 L 312.472 440.463 Z  M 334.988 453.455 L 350.067 462.156 C 350.589 462.457 350.589 462.945 350.067 463.246 L 335.036 471.919 C 334.515 472.22 333.668 472.22 333.147 471.919 L 318.068 463.218 C 317.546 462.918 317.546 462.429 318.068 462.128 L 333.099 453.455 C 333.62 453.155 334.467 453.155 334.988 453.455 L 334.988 453.455 L 334.988 453.455 L 334.988 453.455 L 334.988 453.455 L 334.988 453.455 L 334.988 453.455 L 334.988 453.455 L 334.988 453.455 L 334.988 453.455 L 334.988 453.455 L 334.988 453.455 L 334.988 453.455 L 334.988 453.455 L 334.988 453.455 L 334.988 453.455 L 334.988 453.455 L 334.988 453.455 L 334.988 453.455 L 334.988 453.455 L 334.988 453.455 L 334.988 453.455 Z  M 356.035 465.6 L 371.114 474.3 C 371.636 474.601 371.636 475.089 371.114 475.39 L 356.083 484.063 C 355.562 484.364 354.715 484.364 354.194 484.063 L 339.115 475.363 C 338.594 475.062 338.594 474.573 339.115 474.273 L 354.146 465.6 C 354.667 465.299 355.514 465.299 356.035 465.6 L 356.035 465.6 L 356.035 465.6 L 356.035 465.6 L 356.035 465.6 L 356.035 465.6 L 356.035 465.6 L 356.035 465.6 L 356.035 465.6 L 356.035 465.6 L 356.035 465.6 L 356.035 465.6 L 356.035 465.6 L 356.035 465.6 L 356.035 465.6 L 356.035 465.6 L 356.035 465.6 L 356.035 465.6 L 356.035 465.6 L 356.035 465.6 L 356.035 465.6 Z  M 377.736 478.121 L 392.815 486.822 C 393.336 487.122 393.336 487.611 392.815 487.912 L 377.784 496.585 C 377.263 496.885 376.416 496.885 375.895 496.585 L 360.816 487.884 C 360.294 487.583 360.294 487.095 360.816 486.794 L 375.847 478.121 C 376.368 477.82 377.215 477.82 377.736 478.121 L 377.736 478.121 L 377.736 478.121 L 377.736 478.121 L 377.736 478.121 L 377.736 478.121 L 377.736 478.121 L 377.736 478.121 L 377.736 478.121 L 377.736 478.121 L 377.736 478.121 L 377.736 478.121 L 377.736 478.121 L 377.736 478.121 L 377.736 478.121 L 377.736 478.121 L 377.736 478.121 L 377.736 478.121 L 377.736 478.121 L 377.736 478.121 Z  M 399.437 490.642 L 414.516 499.343 C 415.037 499.644 415.037 500.132 414.516 500.433 L 399.485 509.106 C 398.963 509.407 398.117 509.407 397.596 509.106 L 382.517 500.405 C 381.995 500.105 381.995 499.616 382.517 499.315 L 397.548 490.642 C 398.069 490.341 398.916 490.341 399.437 490.642 L 399.437 490.642 L 399.437 490.642 L 399.437 490.642 L 399.437 490.642 L 399.437 490.642 L 399.437 490.642 L 399.437 490.642 L 399.437 490.642 L 399.437 490.642 L 399.437 490.642 L 399.437 490.642 L 399.437 490.642 L 399.437 490.642 L 399.437 490.642 L 399.437 490.642 L 399.437 490.642 L 399.437 490.642 L 399.437 490.642 Z  M 420.484 502.787 L 435.563 511.487 C 436.084 511.788 436.084 512.276 435.563 512.577 L 420.532 521.25 C 420.011 521.551 419.164 521.551 418.643 521.25 L 403.564 512.55 C 403.042 512.249 403.042 511.76 403.564 511.459 L 418.595 502.787 C 419.116 502.486 419.963 502.486 420.484 502.787 L 420.484 502.787 L 420.484 502.787 L 420.484 502.787 L 420.484 502.787 L 420.484 502.787 L 420.484 502.787 L 420.484 502.787 L 420.484 502.787 L 420.484 502.787 L 420.484 502.787 L 420.484 502.787 L 420.484 502.787 L 420.484 502.787 L 420.484 502.787 L 420.484 502.787 L 420.484 502.787 L 420.484 502.787 Z  M 442.514 515.498 L 457.593 524.198 C 458.114 524.499 458.114 524.988 457.593 525.289 L 442.562 533.962 C 442.041 534.262 441.194 534.262 440.673 533.962 L 425.594 525.261 C 425.072 524.96 425.072 524.472 425.594 524.171 L 440.625 515.498 C 441.146 515.197 441.993 515.197 442.514 515.498 L 442.514 515.498 L 442.514 515.498 L 442.514 515.498 L 442.514 515.498 L 442.514 515.498 L 442.514 515.498 L 442.514 515.498 L 442.514 515.498 L 442.514 515.498 L 442.514 515.498 L 442.514 515.498 L 442.514 515.498 L 442.514 515.498 L 442.514 515.498 L 442.514 515.498 L 442.514 515.498 Z  M 464.072 527.937 L 520.878 560.714 C 521.862 561.281 521.862 562.203 520.878 562.77 L 507.522 570.477 C 506.538 571.045 504.941 571.045 503.958 570.477 L 447.152 537.7 C 446.168 537.132 446.168 536.211 447.152 535.644 L 460.509 527.937 C 461.492 527.369 463.089 527.369 464.072 527.937 L 464.072 527.937 L 464.072 527.937 L 464.072 527.937 L 464.072 527.937 L 464.072 527.937 L 464.072 527.937 L 464.072 527.937 L 464.072 527.937 L 464.072 527.937 L 464.072 527.937 L 464.072 527.937 L 464.072 527.937 L 464.072 527.937 L 464.072 527.937 L 464.072 527.937 Z  M 565.438 535.969 L 550.359 527.269 C 549.838 526.968 548.991 526.968 548.47 527.269 L 533.439 535.942 C 532.917 536.242 532.917 536.731 533.439 537.032 L 548.518 545.732 C 549.039 546.033 549.886 546.033 550.407 545.732 L 565.438 537.059 C 565.959 536.759 565.959 536.27 565.438 535.969 L 565.438 535.969 L 565.438 535.969 L 565.438 535.969 L 565.438 535.969 L 565.438 535.969 L 565.438 535.969 L 565.438 535.969 L 565.438 535.969 L 565.438 535.969 L 565.438 535.969 L 565.438 535.969 L 565.438 535.969 L 565.438 535.969 L 565.438 535.969 Z  M 543.737 523.448 L 528.658 514.747 C 528.137 514.446 527.29 514.446 526.769 514.747 L 511.738 523.42 C 511.217 523.721 511.217 524.21 511.738 524.51 L 526.817 533.211 C 527.338 533.512 528.185 533.512 528.706 533.211 L 543.737 524.538 C 544.259 524.237 544.259 523.749 543.737 523.448 L 543.737 523.448 L 543.737 523.448 L 543.737 523.448 L 543.737 523.448 L 543.737 523.448 L 543.737 523.448 L 543.737 523.448 L 543.737 523.448 L 543.737 523.448 L 543.737 523.448 L 543.737 523.448 L 543.737 523.448 L 543.737 523.448 Z  M 522.036 510.927 L 506.957 502.226 C 506.436 501.925 505.59 501.925 505.068 502.226 L 490.037 510.899 C 489.516 511.2 489.516 511.688 490.037 511.989 L 505.116 520.69 C 505.637 520.99 506.484 520.99 507.005 520.69 L 522.036 512.017 C 522.558 511.716 522.558 511.227 522.036 510.927 L 522.036 510.927 L 522.036 510.927 L 522.036 510.927 L 522.036 510.927 L 522.036 510.927 L 522.036 510.927 L 522.036 510.927 L 522.036 510.927 L 522.036 510.927 L 522.036 510.927 L 522.036 510.927 L 522.036 510.927 Z  M 500.336 498.405 L 485.257 489.705 C 484.735 489.404 483.889 489.404 483.367 489.705 L 468.336 498.378 C 467.815 498.678 467.815 499.167 468.336 499.468 L 483.415 508.168 C 483.937 508.469 484.783 508.469 485.305 508.168 L 500.336 499.495 C 500.857 499.194 500.857 498.706 500.336 498.405 L 500.336 498.405 L 500.336 498.405 L 500.336 498.405 L 500.336 498.405 L 500.336 498.405 L 500.336 498.405 L 500.336 498.405 L 500.336 498.405 L 500.336 498.405 L 500.336 498.405 L 500.336 498.405 Z  M 478.635 485.884 L 463.556 477.183 C 463.035 476.882 462.188 476.882 461.667 477.183 L 446.636 485.856 C 446.114 486.157 446.114 486.645 446.636 486.946 L 461.715 495.647 C 462.236 495.948 463.082 495.948 463.604 495.647 L 478.635 486.974 C 479.156 486.673 479.156 486.185 478.635 485.884 L 478.635 485.884 L 478.635 485.884 L 478.635 485.884 L 478.635 485.884 L 478.635 485.884 L 478.635 485.884 L 478.635 485.884 L 478.635 485.884 L 478.635 485.884 L 478.635 485.884 Z  M 456.934 473.362 L 441.855 464.662 C 441.334 464.361 440.487 464.361 439.966 464.662 L 424.935 473.335 C 424.413 473.636 424.413 474.124 424.935 474.425 L 440.014 483.126 C 440.535 483.426 441.382 483.426 441.903 483.126 L 456.934 474.453 C 457.455 474.152 457.455 473.663 456.934 473.362 L 456.934 473.362 L 456.934 473.362 L 456.934 473.362 L 456.934 473.362 L 456.934 473.362 L 456.934 473.362 L 456.934 473.362 L 456.934 473.362 L 456.934 473.362 Z  M 435.233 460.841 L 420.154 452.141 C 419.633 451.84 418.786 451.84 418.265 452.141 L 403.234 460.813 C 402.713 461.114 402.713 461.603 403.234 461.904 L 418.313 470.604 C 418.834 470.905 419.681 470.905 420.202 470.604 L 435.233 461.931 C 435.755 461.63 435.755 461.142 435.233 460.841 L 435.233 460.841 L 435.233 460.841 L 435.233 460.841 L 435.233 460.841 L 435.233 460.841 L 435.233 460.841 L 435.233 460.841 L 435.233 460.841 Z  M 413.533 448.32 L 398.454 439.619 C 397.932 439.318 397.086 439.318 396.564 439.619 L 381.533 448.292 C 381.012 448.593 381.012 449.081 381.533 449.382 L 396.612 458.083 C 397.134 458.384 397.98 458.384 398.501 458.083 L 413.533 449.41 C 414.054 449.109 414.054 448.621 413.533 448.32 L 413.533 448.32 L 413.533 448.32 L 413.533 448.32 L 413.533 448.32 L 413.533 448.32 L 413.533 448.32 L 413.533 448.32 Z  M 391.832 435.798 L 376.753 427.098 C 376.231 426.797 375.385 426.797 374.864 427.098 L 359.832 435.771 C 359.311 436.072 359.311 436.56 359.832 436.861 L 374.911 445.561 C 375.433 445.862 376.279 445.862 376.801 445.561 L 391.832 436.889 C 392.353 436.588 392.353 436.099 391.832 435.798 L 391.832 435.798 L 391.832 435.798 L 391.832 435.798 L 391.832 435.798 L 391.832 435.798 L 391.832 435.798 Z  M 370.131 423.277 L 355.052 414.576 C 354.531 414.276 353.684 414.276 353.163 414.576 L 338.132 423.249 C 337.61 423.55 337.61 424.039 338.132 424.34 L 353.211 433.04 C 353.732 433.341 354.579 433.341 355.1 433.04 L 370.131 424.367 C 370.652 424.066 370.652 423.578 370.131 423.277 L 370.131 423.277 L 370.131 423.277 L 370.131 423.277 L 370.131 423.277 L 370.131 423.277 Z  M 348.43 410.756 L 333.351 402.055 C 332.83 401.754 331.983 401.754 331.462 402.055 L 316.431 410.728 C 315.91 411.029 315.91 411.517 316.431 411.818 L 331.51 420.519 C 332.031 420.82 332.878 420.82 333.399 420.519 L 348.43 411.846 C 348.952 411.545 348.952 411.057 348.43 410.756 L 348.43 410.756 L 348.43 410.756 L 348.43 410.756 L 348.43 410.756 Z  M 326.729 398.234 L 311.65 389.534 C 311.129 389.233 310.283 389.233 309.761 389.534 L 294.73 398.207 C 294.209 398.508 294.209 398.996 294.73 399.297 L 309.809 407.997 C 310.33 408.298 311.177 408.298 311.698 407.997 L 326.729 399.324 C 327.251 399.024 327.251 398.535 326.729 398.234 L 326.729 398.234 L 326.729 398.234 L 326.729 398.234 Z  M 305.029 385.713 L 289.95 377.012 C 289.428 376.712 288.582 376.712 288.06 377.012 L 273.029 385.685 C 272.508 385.986 272.508 386.475 273.029 386.775 L 288.108 395.476 C 288.63 395.777 289.476 395.777 289.998 395.476 L 305.029 386.803 C 305.55 386.502 305.55 386.014 305.029 385.713 L 305.029 385.713 L 305.029 385.713 Z  M 283.033 373.022 L 256.307 357.601 C 255.623 357.206 254.512 357.206 253.828 357.601 L 239.386 365.933 C 238.703 366.328 238.703 366.969 239.386 367.364 L 266.113 382.785 C 266.797 383.179 267.907 383.179 268.591 382.785 L 283.033 374.452 C 283.717 374.057 283.717 373.416 283.033 373.022 L 283.033 373.022 Z  M 440.374 549.356 L 454.061 557.253 C 454.381 557.438 454.381 557.738 454.061 557.923 L 448.193 561.308 C 447.873 561.493 447.353 561.493 447.032 561.308 L 433.346 553.411 C 433.026 553.226 433.026 552.926 433.346 552.741 L 439.213 549.356 C 439.534 549.171 440.054 549.171 440.374 549.356 Z " fill-rule="evenodd" fill="url(#_lgradient_7)"/></g><path d="M 630.656 530.851 L 641.507 524.586 C 642.12 524.233 642.651 524.519 642.693 525.225 L 642.987 530.166 C 643.029 530.872 642.566 531.733 641.954 532.086 L 631.102 538.351 C 630.49 538.705 629.958 538.419 629.916 537.713 L 629.622 532.771 C 629.58 532.065 630.043 531.205 630.656 530.851 Z" style="stroke:none;fill:#FBFFA6;stroke-miterlimit:10;"/><path d="M 616.989 538.335 L 623.413 534.626 C 623.895 534.348 624.312 534.573 624.345 535.128 L 624.667 540.531 C 624.7 541.086 624.336 541.762 623.855 542.04 L 617.43 545.749 C 616.949 546.027 616.531 545.803 616.498 545.247 L 616.176 539.844 C 616.143 539.289 616.507 538.613 616.989 538.335 Z" style="stroke:none;fill:#FF9ACD;stroke-miterlimit:10;"/></g></svg>