<?xml version="1.0" encoding="UTF-8" standalone="no"?><!-- Generator: Gravit.io --><svg xmlns="http://www.w3.org/2000/svg" xmlns:xlink="http://www.w3.org/1999/xlink" style="isolation:isolate" viewBox="0 0 840 820" width="840pt" height="820pt"><defs><clipPath id="_clipPath_jHMAPfOEa6pRie7ymPuNEH2PswQOgMCK"><rect width="840" height="820"/></clipPath></defs><g clip-path="url(#_clipPath_jHMAPfOEa6pRie7ymPuNEH2PswQOgMCK)"><rect x="-916" y="0" width="840" height="820" transform="matrix(1,0,0,1,0,0)" fill="rgb(216,210,205)"/><ellipse vector-effect="non-scaling-stroke" cx="429.8646274318043" cy="511.9661016949154" rx="274.57324778755526" ry="274.0338983050847" fill="none" stroke-width="36" stroke="rgb(255,255,255)" stroke-linejoin="miter" stroke-linecap="square" stroke-miterlimit="3"/><path d=" M 213 651.28 Q 267.746 638.069 342.784 664.839 Q 417.822 691.609 492.861 664.839 Q 560.709 632.332 642 664.839" fill="none" vector-effect="non-scaling-stroke" stroke-width="40" stroke="rgb(255,255,255)" stroke-linejoin="miter" stroke-linecap="square" stroke-miterlimit="3"/><path d=" M 327.388 274.063 Q 285.276 648.585 285.276 651.28" fill="none" vector-effect="non-scaling-stroke" stroke-width="36" stroke="rgb(255,255,255)" stroke-linejoin="miter" stroke-linecap="square" stroke-miterlimit="3"/><path d=" M 543.209 274.063 Q 585.32 643.235 585.32 645.891" fill="none" vector-effect="non-scaling-stroke" stroke-width="36" stroke="rgb(255,255,255)" stroke-linejoin="miter" stroke-linecap="square" stroke-miterlimit="3"/><path d=" M 285.56 272.139 L 585.32 272.139 L 585.32 231.723 L 326.354 231.723 L 285.56 231.723 L 285.56 272.139 Z " fill="none" vector-effect="non-scaling-stroke" stroke-width="30" stroke="rgb(255,255,255)" stroke-linejoin="miter" stroke-linecap="square" stroke-miterlimit="3"/><line x1="325.29" y1="110.475" x2="326.354" y2="222.722" vector-effect="non-scaling-stroke" stroke-width="36" stroke="rgb(255,255,255)" stroke-linejoin="miter" stroke-linecap="square" stroke-miterlimit="3"/><path d=" M 334 110.475 L 543.209 110.475 L 543.209 222.722" fill="none" vector-effect="non-scaling-stroke" stroke-width="40" stroke="rgb(255,255,255)" stroke-linejoin="miter" stroke-linecap="square" stroke-miterlimit="3"/><path d=" M 334 94 Q 430.62 14.983 537 94" fill="none" vector-effect="non-scaling-stroke" stroke-width="36" stroke="rgb(255,255,255)" stroke-linejoin="miter" stroke-linecap="square" stroke-miterlimit="3"/><path d=" M 334 94 Q 430.62 14.983 537 94" fill="none" vector-effect="non-scaling-stroke" stroke-width="36" stroke="rgb(255,255,255)" stroke-linejoin="miter" stroke-linecap="square" stroke-miterlimit="3"/><line x1="392.423" y1="126" x2="392.423" y2="215" vector-effect="non-scaling-stroke" stroke-width="36" stroke="rgb(255,255,255)" stroke-linejoin="miter" stroke-linecap="square" stroke-miterlimit="3"/><line x1="479.787" y1="126" x2="479.787" y2="222.722" vector-effect="non-scaling-stroke" stroke-width="36" stroke="rgb(255,255,255)" stroke-linejoin="miter" stroke-linecap="square" stroke-miterlimit="3"/><line x1="435.44" y1="53.119" x2="435.44" y2="34" vector-effect="non-scaling-stroke" stroke-width="36" stroke="rgb(255,255,255)" stroke-linejoin="miter" stroke-linecap="square" stroke-miterlimit="3"/><line x1="305.059" y1="543.831" x2="529.709" y2="645.891" vector-effect="non-scaling-stroke" stroke-width="36" stroke="rgb(255,255,255)" stroke-linejoin="miter" stroke-linecap="square" stroke-miterlimit="3"/><line x1="312.612" y1="479" x2="572.674" y2="599" vector-effect="non-scaling-stroke" stroke-width="36" stroke="rgb(255,255,255)" stroke-linejoin="miter" stroke-linecap="square" stroke-miterlimit="3"/><line x1="326.354" y1="376" x2="554" y2="479" vector-effect="non-scaling-stroke" stroke-width="36" stroke="rgb(255,255,255)" stroke-linejoin="miter" stroke-linecap="square" stroke-miterlimit="3"/><line x1="334" y1="311.306" x2="548" y2="410" vector-effect="non-scaling-stroke" stroke-width="36" stroke="rgb(255,255,255)" stroke-linejoin="miter" stroke-linecap="square" stroke-miterlimit="3"/></g></svg>